<svg width="10" height="10" viewBox="0 0 10 10" fill="none" xmlns="http://www.w3.org/2000/svg">
<path d="M9.06575 1.99517C9.35865 1.70228 9.35865 1.22741 9.06575 0.934514C8.77286 0.64162 8.29799 0.64162 8.00509 0.934514L4.99989 3.93971L1.99469 0.934514C1.7018 0.641621 1.22693 0.641621 0.934035 0.934514C0.641141 1.22741 0.641142 1.70228 0.934035 1.99517L3.93923 5.00037L0.934025 8.00558C0.641132 8.29847 0.641132 8.77335 0.934025 9.06624C1.22692 9.35913 1.70179 9.35913 1.99469 9.06624L4.99989 6.06103L8.0051 9.06624C8.298 9.35914 8.77287 9.35914 9.06576 9.06624C9.35865 8.77335 9.35865 8.29848 9.06576 8.00558L6.06055 5.00037L9.06575 1.99517Z" fill="white"/>
</svg>
