<svg width="248" height="185" viewBox="0 0 248 185" fill="none" xmlns="http://www.w3.org/2000/svg">
<path d="M247.798 162.281H0V162.405H247.798V162.281Z" fill="#EBEBEB"/>
<path d="M222.969 170.258H215.584V170.382H222.969V170.258Z" fill="#EBEBEB"/>
<path d="M164.151 171.603H159.843V171.727H164.151V171.603Z" fill="#EBEBEB"/>
<path d="M213.491 165.656H196.546V165.78H213.491V165.656Z" fill="#EBEBEB"/>
<path d="M54.332 168.213H32.926V168.337H54.332V168.213Z" fill="#EBEBEB"/>
<path d="M66.465 168.213H58.745V168.337H66.465V168.213Z" fill="#EBEBEB"/>
<path d="M126.255 166.55H79.83V166.674H126.255V166.55Z" fill="#EBEBEB"/>
<path d="M117.463 140.178H21.763C21.0129 140.177 20.2938 139.879 19.7635 139.349C19.2331 138.818 18.9348 138.099 18.934 137.349V2.828C18.935 2.07812 19.2335 1.35927 19.7638 0.829121C20.2942 0.298968 21.0131 0.000793618 21.763 0H117.463C118.213 0.00105816 118.931 0.299348 119.462 0.829472C119.992 1.3596 120.29 2.07829 120.291 2.828V137.347C120.291 138.097 119.993 138.817 119.463 139.347C118.932 139.878 118.213 140.177 117.463 140.178ZM21.764 0.124001C21.0486 0.126111 20.363 0.411253 19.8571 0.917145C19.3512 1.42304 19.0661 2.10857 19.064 2.824V137.347C19.0661 138.062 19.3512 138.748 19.8571 139.254C20.363 139.76 21.0486 140.045 21.764 140.047H117.464C118.179 140.045 118.865 139.76 119.371 139.254C119.877 138.748 120.162 138.062 120.164 137.347V2.828C120.162 2.11256 119.877 1.42703 119.371 0.921143C118.865 0.415251 118.179 0.130113 117.464 0.128002L21.764 0.124001Z" fill="#EBEBEB"/>
<path d="M224.659 140.178H128.959C128.209 140.177 127.49 139.879 126.96 139.348C126.43 138.818 126.132 138.099 126.131 137.349V2.828C126.132 2.07821 126.43 1.35936 126.96 0.829182C127.49 0.299001 128.209 0.000794128 128.959 0H224.659C225.409 0.000793618 226.128 0.298968 226.658 0.829121C227.189 1.35927 227.487 2.07812 227.488 2.828V137.347C227.488 138.097 227.19 138.817 226.659 139.348C226.129 139.879 225.409 140.177 224.659 140.178ZM128.959 0.124001C128.244 0.126111 127.558 0.411253 127.052 0.917145C126.546 1.42304 126.261 2.10857 126.259 2.824V137.347C126.261 138.062 126.546 138.748 127.052 139.254C127.558 139.76 128.244 140.045 128.959 140.047H224.659C225.375 140.046 226.062 139.762 226.569 139.256C227.076 138.75 227.362 138.063 227.364 137.347V2.828C227.362 2.1117 227.076 1.42542 226.569 0.919384C226.062 0.41335 225.375 0.128793 224.659 0.128002L128.959 0.124001Z" fill="#EBEBEB"/>
<path d="M106.293 162.28H115.522L115.522 98.9083H106.293V162.28Z" fill="#E6E6E6"/>
<path d="M109.542 162.28H106.293V150.24H112.948L109.542 162.28Z" fill="#F0F0F0"/>
<path d="M203.887 162.28H213.116V98.9083H203.887V162.28Z" fill="#E6E6E6"/>
<path d="M106.293 158.993H206.722V98.9082L106.293 98.9082L106.293 158.993Z" fill="#F0F0F0"/>
<path d="M203.477 162.28H206.726V150.24H200.067L203.477 162.28Z" fill="#F0F0F0"/>
<path d="M173.612 103.883V153.587H203.383V103.883H173.612Z" fill="#E6E6E6"/>
<path d="M185.553 105.631H191.443C193.936 105.657 196.348 104.75 198.207 103.089H178.79C180.649 104.75 183.061 105.656 185.553 105.631Z" fill="#F0F0F0"/>
<path d="M141.622 103.883V153.587H171.393V103.883H141.622Z" fill="#E6E6E6"/>
<path d="M153.262 105.631H159.152C161.644 105.656 164.056 104.75 165.915 103.089H146.498C148.357 104.75 150.769 105.657 153.262 105.631Z" fill="#F0F0F0"/>
<path d="M109.632 103.883V153.587H139.403V103.883H109.632Z" fill="#E6E6E6"/>
<path d="M121.272 105.631H127.162C129.655 105.657 132.067 104.75 133.926 103.089H114.508C116.367 104.75 118.779 105.657 121.272 105.631Z" fill="#F0F0F0"/>
<path d="M34.682 162.28H97.652L97.652 20.7283H34.682L34.682 162.28Z" fill="#F0F0F0"/>
<path d="M34.682 162.28H96.323L96.323 20.7283H34.682L34.682 162.28Z" fill="#F5F5F5"/>
<path d="M92.567 159.068L92.567 23.9399L38.438 23.9399L38.438 159.068H92.567Z" fill="#F0F0F0"/>
<path d="M87.248 49.071C87.248 47.133 86.8663 45.2141 86.1247 43.4237C85.3831 41.6333 84.2961 40.0065 82.9258 38.6362C81.5555 37.2659 79.9287 36.1789 78.1383 35.4373C76.3479 34.6957 74.4289 34.314 72.491 34.314H58.515C54.6012 34.314 50.8477 35.8687 48.0802 38.6362C45.3127 41.4037 43.758 45.1572 43.758 49.071H87.248Z" fill="#FAFAFA"/>
<path d="M87.248 150.669V118.387H43.758V150.669H87.248Z" fill="#F5F5F5"/>
<path d="M87.248 58.1729H68.065V114.222H87.248V58.1729Z" fill="#F5F5F5"/>
<path d="M62.941 58.1729H43.758V114.222H62.941V58.1729Z" fill="#F5F5F5"/>
<path d="M50.715 85.9448H42.858C42.535 85.944 42.2254 85.8153 41.9969 85.5869C41.7685 85.3585 41.6398 85.0489 41.639 84.7258C41.6401 84.4029 41.7688 84.0934 41.9972 83.865C42.2256 83.6367 42.535 83.5079 42.858 83.5068H50.715C51.038 83.5079 51.3474 83.6367 51.5758 83.865C51.8042 84.0934 51.933 84.4029 51.934 84.7258C51.9332 85.0489 51.8045 85.3585 51.5761 85.5869C51.3477 85.8153 51.0381 85.944 50.715 85.9448Z" fill="#E0E0E0"/>
<path d="M39.413 159.068L39.413 23.9399H38.439L38.439 159.068H39.413Z" fill="#F0F0F0"/>
<path d="M137.482 83.3721L204.261 83.3721V20.7281L137.482 20.7281V83.3721Z" fill="#E6E6E6"/>
<path d="M135.799 83.3721L202.578 83.3721V20.7281L135.799 20.7281V83.3721Z" fill="#F5F5F5"/>
<path d="M131.9 86.998L204.261 86.998V83.372L131.9 83.372V86.998Z" fill="#E6E6E6"/>
<path d="M130.005 86.998L198.639 86.998V83.372L130.005 83.372V86.998Z" fill="#F5F5F5"/>
<path d="M199.556 80.1138V23.9868L138.82 23.9868V80.1138H199.556Z" fill="white"/>
<path d="M170.871 80.1138V23.9868H167.504V80.1138H170.871Z" fill="#F5F5F5"/>
<path d="M140.093 80.1138V23.9868H138.82V80.1138H140.093Z" fill="#E6E6E6"/>
<path d="M172.144 80.1138V23.9868H170.871V80.1138H172.144Z" fill="#E6E6E6"/>
<path d="M146.459 85.0331C145.231 72.3081 144.376 51.6591 145.04 44.7531C145.052 44.6345 145.088 44.5196 145.147 44.4162C145.207 44.3127 145.287 44.2231 145.384 44.1532C145.512 44.0592 145.665 44.0032 145.823 43.9915C145.982 43.9799 146.141 44.0131 146.281 44.0873C146.422 44.1615 146.539 44.2738 146.619 44.4113C146.699 44.5489 146.739 44.7061 146.734 44.8651C146.617 48.2871 146.482 56.8402 147.211 71.5952C147.574 78.9402 148.097 83.9701 147.738 85.0311L146.459 85.0331Z" fill="#E6E6E6"/>
<path d="M141.881 55.7043C138.381 51.8213 131.242 49.0603 123.964 49.0743C121.107 49.0803 132.657 53.5913 137.464 58.5743C141.306 62.7122 144.468 67.4324 146.833 72.5593C145.905 64.9543 145.378 59.5853 141.881 55.7043Z" fill="#E6E6E6"/>
<path d="M148.813 56.8862C151.713 52.8422 158.42 49.7322 165.673 49.3802C168.52 49.2422 157.687 54.3172 153.644 59.5192C150.419 63.8671 147.967 68.7384 146.397 73.9192C146.185 66.3062 145.909 60.9312 148.813 56.8862Z" fill="#E6E6E6"/>
<path d="M141.725 41.5223C138.764 38.2343 132.716 35.8962 126.553 35.9082C124.134 35.9082 133.914 39.7343 137.981 43.9493C141.234 47.4531 143.912 51.4499 145.915 55.7913C145.133 49.3573 144.684 44.8103 141.725 41.5223Z" fill="#E6E6E6"/>
<path d="M147.594 46.3852C150.053 42.9602 155.73 40.3272 161.871 40.0292C164.282 39.9122 155.109 44.2092 151.685 48.6142C148.953 52.2977 146.877 56.4249 145.548 60.8142C145.37 54.3622 145.135 49.8082 147.594 46.3852Z" fill="#E6E6E6"/>
<path d="M146.953 98.9082C145.108 98.9082 143.332 98.2025 141.99 96.9356C140.648 95.6687 139.842 93.9366 139.736 92.0943L139.098 81.0312H154.808L154.17 92.0943C154.064 93.9366 153.258 95.6687 151.916 96.9356C150.574 98.2025 148.798 98.9082 146.953 98.9082Z" fill="#E6E6E6"/>
<path d="M155.825 83.5463H138.084L137.576 78.9463H156.337L155.825 83.5463Z" fill="#E6E6E6"/>
<path d="M123.899 184.664C176.969 184.664 219.99 182.151 219.99 179.052C219.99 175.953 176.969 173.44 123.899 173.44C70.8294 173.44 27.808 175.953 27.808 179.052C27.808 182.151 70.8294 184.664 123.899 184.664Z" fill="#F5F5F5"/>
<path d="M125.838 173.689L121.7 174.155L120.174 164.771L124.312 164.305L125.838 173.689Z" fill="#FFC3BD"/>
<path d="M144.364 174.593H140.232L139.203 165.024H143.335L144.364 174.593Z" fill="#FFC3BD"/>
<path d="M139.892 174.112H144.929C145.011 174.112 145.09 174.14 145.154 174.191C145.218 174.242 145.263 174.314 145.281 174.394L146.097 178.067C146.116 178.156 146.115 178.249 146.093 178.338C146.071 178.427 146.03 178.51 145.972 178.58C145.914 178.651 145.84 178.708 145.757 178.746C145.674 178.784 145.583 178.803 145.492 178.802C143.871 178.774 142.692 178.679 140.648 178.679C139.392 178.679 135.604 178.809 133.87 178.809C132.17 178.809 131.909 177.094 132.619 176.939C135.803 176.239 138.202 175.282 139.219 174.366C139.404 174.201 139.644 174.11 139.892 174.112Z" fill="#263238"/>
<path d="M121.632 173.446L126.116 172.938C126.197 172.928 126.28 172.947 126.349 172.991C126.419 173.034 126.471 173.1 126.498 173.178L127.723 176.735C127.754 176.821 127.765 176.913 127.755 177.004C127.745 177.095 127.714 177.182 127.665 177.259C127.616 177.336 127.55 177.401 127.472 177.449C127.394 177.497 127.306 177.526 127.215 177.535C125.595 177.691 123.247 177.861 121.215 178.092C118.838 178.362 118.442 178.998 115.638 178.933C113.938 178.893 113.512 177.168 114.225 177.033C117.473 176.402 118.101 175.911 120.682 173.885C120.952 173.653 121.281 173.501 121.632 173.446Z" fill="#263238"/>
<path d="M125.282 53.177C123.894 54.323 122.528 55.319 121.115 56.339C119.702 57.359 118.259 58.306 116.774 59.225C115.289 60.144 113.765 61.025 112.167 61.825C110.533 62.6714 108.833 63.3811 107.082 63.947C106.619 64.095 106.168 64.217 105.648 64.347C105.14 64.4573 104.625 64.5397 104.108 64.594C103.177 64.694 102.301 64.739 101.428 64.779C99.688 64.859 97.981 64.857 96.276 64.845C92.866 64.804 89.485 64.64 86.089 64.34L86.038 61.24C89.373 60.811 92.723 60.44 96.038 60.067C97.695 59.887 99.348 59.685 100.963 59.474C101.763 59.365 102.563 59.237 103.301 59.1C103.618 59.044 103.932 58.9703 104.241 58.879C104.532 58.779 104.889 58.665 105.219 58.532C106.636 57.9567 108.012 57.2837 109.336 56.518C110.707 55.731 112.079 54.886 113.427 53.988C114.775 53.09 116.117 52.16 117.447 51.211C118.777 50.262 120.106 49.257 121.354 48.311L125.282 53.177Z" fill="#FFC3BD"/>
<path d="M129.321 49.6449C128.727 53.5509 120.503 59.5259 120.503 59.5259L114.603 52.2029C117.188 49.4446 119.928 46.8366 122.811 44.3919C125.466 42.2219 129.967 45.3949 129.321 49.6449Z" fill="#A6A6D4"/>
<path d="M87.176 61.567L84.83 59.897L84.573 65.173C84.9276 65.1739 85.2771 65.088 85.5909 64.9227C85.9046 64.7575 86.1732 64.5179 86.373 64.225L87.176 61.567Z" fill="#FFC3BD"/>
<path d="M82.711 58.3608L82.231 63.5318L84.575 65.1728L84.832 59.8968L82.711 58.3608Z" fill="#FFC3BD"/>
<path opacity="0.2" d="M120.176 164.774L120.962 169.611L125.101 169.145L124.315 164.308L120.176 164.774Z" fill="black"/>
<path opacity="0.2" d="M143.337 165.025H139.203L139.735 169.957H143.869L143.337 165.025Z" fill="black"/>
<path d="M143.396 44.5172C143.704 44.5862 143.995 44.716 144.251 44.8991C144.508 45.0822 144.726 45.3148 144.891 45.5833C145.057 45.8517 145.167 46.1506 145.216 46.4623C145.264 46.7739 145.249 47.0921 145.173 47.3981C144.276 51.1196 143.601 54.8909 143.149 58.6921C142.758 61.8921 142.524 64.9491 142.378 67.7201C142.035 74.2151 142.178 79.1661 141.984 80.8441C138.753 80.6201 126.577 79.7731 119.938 79.3091C117.697 61.7651 120.323 50.5691 121.798 46.0201C122.024 45.3113 122.446 44.6812 123.016 44.2032C123.587 43.7252 124.281 43.419 125.018 43.3201C125.864 43.2091 126.876 43.1021 127.944 43.0391C128.318 43.0151 128.697 43.0021 129.083 42.9941C132.217 43.0312 135.347 43.2489 138.456 43.6461C139.046 43.7161 139.642 43.8031 140.222 43.8961C141.381 44.0901 142.483 44.3132 143.396 44.5172Z" fill="#BDBDD7"/>
<path d="M138.265 33.0332C137.465 36.0072 136.487 41.4912 138.457 43.6512C133.347 47.0882 130.085 51.9272 129.144 50.8762C128.651 50.3262 128.437 43.9612 129.085 42.9972C132.504 42.4292 132.591 39.9282 132.169 37.5442L138.265 33.0332Z" fill="#FFC3BD"/>
<path d="M138.061 42.418C138.061 42.418 129.734 46.103 128.63 54.343C130.924 51.687 135.991 48.797 135.991 48.797L133.756 48.155C135.177 47.6155 136.649 47.2196 138.149 46.973C137.901 45.835 139.223 43.565 139.223 43.565L138.061 42.418Z" fill="#A6A6D4"/>
<path d="M130.548 42.2852C130.548 42.2852 131.658 46.9912 128.631 54.3432C128.034 51.7771 127.216 49.2677 126.185 46.8432L128.224 47.3982C128.224 47.3982 128.124 46.4492 126.473 45.1872C127.161 44.1879 128.019 43.317 129.008 42.6142L130.548 42.2852Z" fill="#A6A6D4"/>
<path opacity="0.2" d="M135.78 34.874L132.172 37.542C132.279 38.0972 132.337 38.6607 132.345 39.226C133.645 39.126 135.505 37.843 135.736 36.508C135.849 35.9705 135.864 35.4169 135.78 34.874Z" fill="black"/>
<path d="M127.684 24.421C125.669 24.508 124.557 27.982 126.602 30.843C128.647 33.704 130.399 24.304 127.684 24.421Z" fill="#263238"/>
<path d="M137.621 27.4779C137.86 31.5719 138.208 33.9549 136.406 36.2879C133.696 39.7969 128.456 38.5389 126.999 34.5989C125.688 31.0529 125.517 24.9539 129.299 22.8589C130.131 22.3925 131.068 22.1466 132.022 22.1445C132.976 22.1425 133.914 22.3844 134.748 22.8473C135.582 23.3101 136.284 23.9786 136.787 24.7891C137.29 25.5995 137.577 26.5251 137.621 27.4779Z" fill="#FFC3BD"/>
<path d="M138.222 30.6241C137.127 29.9823 136.171 29.1292 135.41 28.1144C134.648 27.0996 134.096 25.9434 133.785 24.7131C132.585 24.9971 126.604 27.7491 124.765 24.7131C122.926 21.6771 125.24 19.8961 128.681 21.7651C127.159 19.0791 128.543 17.765 133.325 17.649C138.107 17.533 137.464 20.3051 137.464 20.3051C137.464 20.3051 141.084 18.7291 142.364 21.5051C143.847 24.6951 141.111 30.1421 138.222 30.6241Z" fill="#263238"/>
<path d="M136.646 19.5722C136.69 19.5722 138.457 19.9972 140.493 17.9482C140.128 19.6962 136.966 20.8602 136.966 20.8602L136.646 19.5722Z" fill="#263238"/>
<path d="M139.022 25.5609C137.115 24.9019 134.806 27.7269 135.659 31.1379C136.512 34.5489 141.591 26.4489 139.022 25.5609Z" fill="#263238"/>
<path d="M140.101 30.8829C139.926 31.8996 139.356 32.8057 138.515 33.4029C137.394 34.1849 136.384 33.2909 136.315 31.9969C136.257 30.8329 136.769 29.0229 138.076 28.7559C138.363 28.7023 138.659 28.7212 138.936 28.8109C139.214 28.9007 139.465 29.0584 139.666 29.2697C139.867 29.4811 140.012 29.7393 140.088 30.021C140.164 30.3028 140.169 30.599 140.101 30.8829Z" fill="#FFC3BD"/>
<path d="M126.152 125.863C127.145 113.777 134.429 80.3201 134.429 80.3201L119.935 79.3091C119.935 79.3091 114.346 112.52 113.918 125.124C113.472 138.229 118.743 167.355 118.743 167.355L125.694 166.564C125.694 166.564 125.155 137.999 126.152 125.863Z" fill="#A6A6D4"/>
<path opacity="0.5" d="M126.152 125.863C127.145 113.777 134.429 80.3201 134.429 80.3201L119.935 79.3091C119.935 79.3091 114.346 112.52 113.918 125.124C113.472 138.229 118.743 167.355 118.743 167.355L125.694 166.564C125.694 166.564 125.155 137.999 126.152 125.863Z" fill="white"/>
<path opacity="0.2" d="M128.969 91.6499C126.047 95.3859 125.995 108.507 127.125 118.201C128.202 111.208 129.899 102.327 131.386 94.9239L128.969 91.6499Z" fill="black"/>
<path d="M127.756 79.854C127.756 79.854 129.32 115.229 131.065 127.209C132.975 140.328 137.826 169.001 137.826 169.001H145.394C145.394 169.001 144.149 141.995 143.15 129.106C142.013 114.425 141.982 80.846 141.982 80.846L127.756 79.854Z" fill="#A6A6D4"/>
<path opacity="0.5" d="M127.756 79.854C127.756 79.854 129.32 115.229 131.065 127.209C132.975 140.328 137.826 169.001 137.826 169.001H145.394C145.394 169.001 144.149 141.995 143.15 129.106C142.013 114.425 141.982 80.846 141.982 80.846L127.756 79.854Z" fill="white"/>
<path d="M136.916 169.162H145.827V166.5L135.866 166.327L136.916 169.162Z" fill="#A6A6D4"/>
<path d="M118.44 168.138L126.724 167.199L126.424 164.522L117.147 165.431L118.44 168.138Z" fill="#A6A6D4"/>
<path d="M131.593 29.3551C131.633 29.6861 131.493 29.9751 131.273 30.0011C131.053 30.0271 130.849 29.7801 130.81 29.4491C130.771 29.1181 130.91 28.8291 131.13 28.8031C131.35 28.7771 131.554 29.0241 131.593 29.3551Z" fill="#263238"/>
<path d="M127.854 29.8039C127.894 30.1349 127.754 30.4238 127.534 30.4498C127.314 30.4758 127.11 30.2289 127.07 29.8979C127.03 29.5669 127.17 29.2779 127.39 29.2519C127.61 29.2259 127.814 29.4769 127.854 29.8039Z" fill="#263238"/>
<path d="M129.062 29.8262C128.789 30.8849 128.372 31.9011 127.822 32.8462C128.067 32.9806 128.339 33.0598 128.618 33.0783C128.897 33.0968 129.177 33.0541 129.438 32.9532L129.062 29.8262Z" fill="#ED847E"/>
<path d="M132.61 28.0063C132.575 28.0168 132.538 28.0176 132.503 28.0086C132.468 27.9996 132.436 27.9812 132.41 27.9553C132.245 27.7734 132.039 27.6333 131.809 27.5464C131.579 27.4595 131.331 27.4283 131.087 27.4553C131.036 27.4639 130.984 27.4524 130.941 27.4234C130.898 27.3943 130.869 27.3498 130.858 27.2993C130.853 27.274 130.853 27.2479 130.858 27.2225C130.863 27.1972 130.873 27.1731 130.888 27.1518C130.902 27.1304 130.921 27.1122 130.942 27.0982C130.964 27.0842 130.989 27.0747 131.014 27.0703C131.322 27.0303 131.636 27.0651 131.928 27.1716C132.22 27.2781 132.483 27.4532 132.693 27.6823C132.729 27.7195 132.749 27.7692 132.749 27.8208C132.749 27.8724 132.729 27.922 132.693 27.9593C132.67 27.9817 132.641 27.9978 132.61 28.0063Z" fill="#263238"/>
<path d="M131.173 34.2729C131.645 34.1736 132.086 33.9623 132.459 33.6566C132.832 33.351 133.126 32.9601 133.316 32.5169C133.325 32.4904 133.324 32.4613 133.311 32.436C133.299 32.4106 133.278 32.3912 133.251 32.3819C133.224 32.3726 133.195 32.3743 133.17 32.3865C133.145 32.3987 133.125 32.4204 133.116 32.4469C132.934 32.8546 132.659 33.2137 132.312 33.4955C131.966 33.7772 131.558 33.9736 131.122 34.0689C131.109 34.072 131.096 34.0777 131.085 34.0857C131.073 34.0937 131.064 34.1039 131.056 34.1156C131.049 34.1273 131.044 34.1403 131.042 34.1539C131.039 34.1675 131.04 34.1815 131.043 34.1949C131.046 34.2084 131.052 34.2211 131.06 34.2324C131.068 34.2436 131.078 34.2532 131.09 34.2605C131.101 34.2679 131.114 34.2728 131.128 34.2751C131.142 34.2774 131.156 34.277 131.169 34.2739L131.173 34.2729Z" fill="#263238"/>
<path d="M126.095 28.7103C126.056 28.7234 126.013 28.7234 125.974 28.7103C125.926 28.6924 125.886 28.6565 125.863 28.6101C125.841 28.5637 125.837 28.5104 125.853 28.4613C125.947 28.1647 126.111 27.895 126.331 27.6753C126.551 27.4556 126.821 27.2923 127.118 27.1993C127.168 27.1879 127.221 27.1963 127.265 27.2228C127.309 27.2492 127.341 27.2917 127.355 27.3413C127.366 27.3913 127.358 27.4438 127.332 27.488C127.306 27.5321 127.263 27.5644 127.214 27.5783C126.981 27.6561 126.769 27.7883 126.597 27.9639C126.424 28.1395 126.296 28.3535 126.223 28.5883C126.212 28.6171 126.195 28.643 126.173 28.6642C126.151 28.6853 126.124 28.7011 126.095 28.7103Z" fill="#263238"/>
<path d="M138.531 174.834C138.248 174.857 137.966 174.782 137.731 174.623C137.658 174.56 137.601 174.48 137.566 174.39C137.531 174.299 137.519 174.202 137.531 174.106C137.531 174.049 137.546 173.993 137.576 173.944C137.606 173.895 137.648 173.855 137.699 173.829C138.158 173.593 139.489 174.413 139.639 174.507C139.655 174.518 139.668 174.533 139.676 174.55C139.684 174.568 139.687 174.588 139.684 174.607C139.681 174.626 139.672 174.644 139.659 174.658C139.646 174.672 139.629 174.682 139.61 174.687C139.257 174.776 138.895 174.825 138.531 174.834ZM137.917 173.979C137.873 173.977 137.83 173.985 137.79 174.003C137.77 174.014 137.753 174.031 137.742 174.052C137.731 174.072 137.726 174.095 137.728 174.118C137.719 174.184 137.727 174.25 137.75 174.312C137.773 174.374 137.811 174.43 137.861 174.473C138.323 174.684 138.847 174.71 139.328 174.547C138.897 174.268 138.416 174.075 137.912 173.979H137.917Z" fill="#A6A6D4"/>
<path d="M139.584 174.689C139.568 174.689 139.551 174.685 139.537 174.677C139.11 174.445 138.283 173.539 138.37 173.077C138.384 173.005 138.423 172.94 138.48 172.893C138.536 172.846 138.607 172.82 138.681 172.82C138.755 172.811 138.831 172.817 138.903 172.839C138.975 172.861 139.041 172.897 139.098 172.946C139.578 173.339 139.677 174.531 139.68 174.581C139.681 174.598 139.678 174.616 139.67 174.632C139.662 174.648 139.651 174.661 139.636 174.671C139.621 174.682 139.603 174.688 139.584 174.689ZM138.75 173.014H138.705C138.578 173.03 138.567 173.088 138.562 173.114C138.51 173.386 139.037 174.07 139.462 174.393C139.434 173.92 139.264 173.467 138.974 173.093C138.911 173.041 138.832 173.013 138.75 173.014Z" fill="#A6A6D4"/>
<path d="M121.296 174.057L121.28 174.064C120.633 174.271 119.475 174.564 118.98 174.218C118.907 174.168 118.847 174.1 118.806 174.021C118.765 173.942 118.744 173.855 118.744 173.766C118.74 173.713 118.75 173.659 118.773 173.61C118.796 173.562 118.831 173.52 118.875 173.489C119.34 173.162 121.087 173.805 121.285 173.88C121.302 173.887 121.317 173.899 121.327 173.914C121.338 173.929 121.344 173.947 121.345 173.966C121.346 173.984 121.342 174.002 121.334 174.019C121.325 174.035 121.312 174.049 121.296 174.058V174.057ZM119.013 173.633L118.99 173.647C118.972 173.659 118.958 173.676 118.949 173.695C118.94 173.715 118.937 173.737 118.94 173.758C118.939 173.817 118.952 173.875 118.978 173.927C119.005 173.979 119.044 174.024 119.092 174.058C119.7 174.248 120.356 174.212 120.94 173.958C120.335 173.69 119.672 173.578 119.012 173.633H119.013Z" fill="#A6A6D4"/>
<path d="M121.296 174.057C121.272 174.069 121.245 174.071 121.22 174.063C120.7 173.897 119.62 173.12 119.64 172.648C119.645 172.537 119.708 172.392 119.972 172.335C120.067 172.314 120.166 172.312 120.262 172.33C120.358 172.349 120.449 172.386 120.53 172.441C120.954 172.846 121.239 173.375 121.346 173.951C121.349 173.968 121.348 173.985 121.343 174.001C121.338 174.018 121.329 174.032 121.316 174.044C121.31 174.049 121.303 174.053 121.296 174.057ZM119.905 172.567C119.838 172.603 119.836 172.645 119.835 172.661C119.821 172.945 120.567 173.567 121.108 173.813C121.008 173.352 120.769 172.933 120.423 172.613C120.364 172.572 120.297 172.544 120.226 172.53C120.156 172.517 120.083 172.518 120.013 172.534C119.976 172.54 119.939 172.551 119.905 172.567Z" fill="#A6A6D4"/>
<path d="M146.882 50.4766C146.777 52.0906 146.587 53.5936 146.39 55.1456C146.193 56.6976 145.928 58.2186 145.637 59.7536C145.061 62.8888 144.211 65.9674 143.096 68.9536L142.605 70.1106L142.481 70.3996L142.45 70.4716L142.399 70.5816L142.255 70.8666C142.065 71.2129 141.836 71.5369 141.574 71.8326C141.143 72.3178 140.639 72.7327 140.08 73.0626C139.627 73.332 139.153 73.5625 138.661 73.7516C137.023 74.3425 135.31 74.7 133.573 74.8136C130.418 75.0493 127.247 74.9309 124.119 74.4606L124.232 71.3606L126.418 71.1136C127.151 71.0266 127.88 70.9136 128.605 70.8136C130.052 70.6006 131.484 70.3626 132.849 70.0456C134.112 69.7886 135.339 69.3817 136.505 68.8336C136.819 68.7015 137.095 68.4912 137.305 68.2226C137.318 68.1516 137.16 68.4626 137.346 67.9656L137.673 67.0096C138.474 64.269 139.087 61.4768 139.507 58.6526C139.742 57.2146 139.943 55.7636 140.137 54.3086C140.331 52.8536 140.491 51.3686 140.644 49.9736L146.882 50.4766Z" fill="#FFC3BD"/>
<path d="M147.242 47.4808C149.265 50.8738 147.542 61.5378 147.542 61.5378L136.942 59.5788C136.942 59.5788 136.368 53.4788 138.386 48.7848C140.577 43.6758 144.791 43.3698 147.242 47.4808Z" fill="#A6A6D4"/>
<path d="M121.264 80.9518L115.639 54.7878C115.369 53.6705 114.743 52.6713 113.856 51.9408C112.968 51.2103 111.867 50.788 110.719 50.7378H89.166C90.3145 50.7878 91.4156 51.21 92.3033 51.9405C93.1909 52.671 93.817 53.6704 94.087 54.7878L99.712 80.9518C99.982 82.0691 100.608 83.0683 101.495 83.7988C102.383 84.5293 103.484 84.9515 104.632 85.0018H126.184C125.036 84.9515 123.935 84.5293 123.047 83.7988C122.16 83.0683 121.534 82.0691 121.264 80.9518Z" fill="#263238"/>
<path opacity="0.7" d="M121.264 80.9518L115.639 54.7878C115.369 53.6705 114.743 52.6713 113.856 51.9408C112.968 51.2103 111.867 50.788 110.719 50.7378H89.166C90.3145 50.7878 91.4156 51.21 92.3033 51.9405C93.1909 52.671 93.817 53.6704 94.087 54.7878L99.712 80.9518C99.982 82.0691 100.608 83.0683 101.495 83.7988C102.383 84.5293 103.484 84.9515 104.632 85.0018H126.184C125.036 84.9515 123.935 84.5293 123.047 83.7988C122.16 83.0683 121.534 82.0691 121.264 80.9518Z" fill="#A6A6D4"/>
<path d="M89.166 50.7378H110.718C109.615 50.7585 108.557 51.1814 107.743 51.9272C106.929 52.673 106.416 53.6903 106.3 54.7878L100.709 115.588C100.592 116.685 100.079 117.702 99.2658 118.448C98.4522 119.194 97.3944 119.617 96.291 119.638H82.839C82.3208 119.647 81.8066 119.546 81.3307 119.341C80.8548 119.136 80.4283 118.831 80.0797 118.448C79.7311 118.064 79.4684 117.611 79.3093 117.117C79.1501 116.624 79.0982 116.103 79.157 115.588L84.749 54.7878C84.8653 53.6904 85.3783 52.6733 86.1917 51.9276C87.005 51.1818 88.0627 50.7587 89.166 50.7378Z" fill="#A6A6D4"/>
<path d="M92.609 115.587C92.5502 116.102 92.6021 116.623 92.7613 117.117C92.9204 117.61 93.183 118.063 93.5317 118.447C93.8803 118.83 94.3068 119.135 94.7827 119.34C95.2586 119.545 95.7728 119.647 96.291 119.637H74.739C74.2208 119.647 73.7065 119.546 73.2305 119.34C72.7546 119.135 72.3279 118.831 71.9793 118.447C71.6306 118.064 71.368 117.61 71.2089 117.117C71.0498 116.623 70.998 116.102 71.057 115.587H92.609Z" fill="#263238"/>
<path opacity="0.7" d="M92.609 115.587C92.5502 116.102 92.6021 116.623 92.7613 117.117C92.9204 117.61 93.183 118.063 93.5317 118.447C93.8803 118.83 94.3068 119.135 94.7827 119.34C95.2586 119.545 95.7728 119.647 96.291 119.637H74.739C74.2208 119.647 73.7065 119.546 73.2305 119.34C72.7546 119.135 72.3279 118.831 71.9793 118.447C71.6306 118.064 71.368 117.61 71.2089 117.117C71.0498 116.623 70.998 116.102 71.057 115.587H92.609Z" fill="#A6A6D4"/>
<g opacity="0.5">
<path opacity="0.5" d="M102.565 57.5497H87.981C87.8684 57.5513 87.7568 57.5288 87.6535 57.4839C87.5502 57.439 87.4577 57.3726 87.382 57.2892C87.3063 57.2058 87.2493 57.1073 87.2146 57.0001C87.18 56.8929 87.1685 56.7796 87.181 56.6677C87.2069 56.429 87.3189 56.2078 87.4959 56.0455C87.6729 55.8832 87.9029 55.7909 88.143 55.7857H102.725C102.838 55.7842 102.949 55.8066 103.053 55.8515C103.156 55.8964 103.248 55.9628 103.324 56.0462C103.4 56.1296 103.457 56.2282 103.491 56.3353C103.526 56.4425 103.538 56.5558 103.525 56.6677C103.499 56.9061 103.388 57.127 103.211 57.2893C103.034 57.4515 102.805 57.5441 102.565 57.5497Z" fill="white"/>
<path opacity="0.5" d="M102.131 62.3207H87.547C87.4344 62.3223 87.3228 62.2998 87.2195 62.2549C87.1162 62.21 87.0237 62.1436 86.948 62.0602C86.8723 61.9768 86.8153 61.8782 86.7806 61.7711C86.746 61.6639 86.7345 61.5506 86.747 61.4387C86.7729 61.2 86.8849 60.9788 87.0619 60.8165C87.2389 60.6542 87.4689 60.5619 87.709 60.5567H102.293C102.406 60.5552 102.517 60.5776 102.621 60.6225C102.724 60.6674 102.816 60.7338 102.892 60.8172C102.968 60.9006 103.025 60.9992 103.059 61.1063C103.094 61.2135 103.106 61.3268 103.093 61.4387C103.067 61.6775 102.955 61.8988 102.778 62.0612C102.601 62.2235 102.371 62.3158 102.131 62.3207Z" fill="white"/>
<path opacity="0.5" d="M98.122 67.0917H87.113C87.0004 67.0932 86.8888 67.0708 86.7855 67.0259C86.6822 66.981 86.5897 66.9146 86.514 66.8312C86.4383 66.7478 86.3813 66.6492 86.3466 66.5421C86.312 66.4349 86.3005 66.3216 86.313 66.2097C86.3389 65.9709 86.4509 65.7498 86.6279 65.5875C86.8049 65.4252 87.0349 65.3329 87.275 65.3277H98.284C98.3966 65.3262 98.5083 65.3486 98.6115 65.3935C98.7148 65.4384 98.8074 65.5048 98.883 65.5882C98.9587 65.6716 99.0157 65.7702 99.0504 65.8773C99.085 65.9845 99.0965 66.0978 99.084 66.2097C99.0581 66.4485 98.9462 66.6696 98.7692 66.8319C98.5921 66.9942 98.3621 67.0866 98.122 67.0917Z" fill="white"/>
<path opacity="0.5" d="M90.413 71.8617H86.68C86.5674 71.8633 86.4558 71.8409 86.3525 71.7959C86.2492 71.751 86.1567 71.6847 86.081 71.6012C86.0053 71.5178 85.9483 71.4193 85.9136 71.3121C85.879 71.205 85.8675 71.0917 85.88 70.9797C85.9057 70.7411 86.0174 70.5199 86.1943 70.3576C86.3711 70.1953 86.601 70.1029 86.841 70.0977H90.575C90.6876 70.0962 90.7993 70.1186 90.9025 70.1635C91.0058 70.2084 91.0984 70.2748 91.174 70.3582C91.2497 70.4416 91.3067 70.5402 91.3414 70.6474C91.376 70.7545 91.3875 70.8678 91.375 70.9797C91.3491 71.2185 91.2372 71.4396 91.0602 71.6019C90.8831 71.7642 90.6531 71.8566 90.413 71.8617Z" fill="white"/>
<path opacity="0.5" d="M100.829 76.6327H86.241C86.1284 76.6343 86.0167 76.6118 85.9135 76.5669C85.8102 76.522 85.7176 76.4557 85.642 76.3722C85.5663 76.2888 85.5093 76.1903 85.4746 76.0831C85.44 75.976 85.4285 75.8627 85.441 75.7507C85.4669 75.512 85.5788 75.2908 85.7559 75.1285C85.9329 74.9662 86.1629 74.8739 86.403 74.8687H100.987C101.1 74.8672 101.211 74.8896 101.315 74.9345C101.418 74.9794 101.51 75.0458 101.586 75.1292C101.662 75.2126 101.719 75.3112 101.753 75.4183C101.788 75.5255 101.799 75.6388 101.787 75.7507C101.761 75.9888 101.65 76.2094 101.474 76.3716C101.297 76.5338 101.068 76.6266 100.829 76.6327Z" fill="white"/>
<path opacity="0.5" d="M94.652 81.4037H85.812C85.6994 81.4053 85.5877 81.3828 85.4845 81.3379C85.3812 81.293 85.2886 81.2267 85.213 81.1432C85.1373 81.0598 85.0803 80.9613 85.0456 80.8541C85.011 80.747 84.9995 80.6337 85.012 80.5217C85.0377 80.2831 85.1494 80.0619 85.3263 79.8996C85.5031 79.7373 85.733 79.6449 85.973 79.6397H94.813C94.9256 79.6382 95.0373 79.6606 95.1405 79.7055C95.2438 79.7504 95.3364 79.8168 95.412 79.9002C95.4877 79.9836 95.5447 80.0822 95.5794 80.1893C95.614 80.2965 95.6255 80.4098 95.613 80.5217C95.5871 80.7603 95.4753 80.9813 95.2985 81.1436C95.1217 81.3059 94.8919 81.3983 94.652 81.4037Z" fill="white"/>
<path opacity="0.5" d="M99.962 86.1737H85.378C85.2654 86.1753 85.1537 86.1529 85.0505 86.108C84.9472 86.063 84.8547 85.9967 84.779 85.9133C84.7033 85.8298 84.6463 85.7313 84.6116 85.6241C84.577 85.517 84.5655 85.4037 84.578 85.2917C84.6039 85.053 84.7159 84.8318 84.8929 84.6695C85.0699 84.5072 85.2999 84.4149 85.54 84.4097H100.125C100.238 84.4082 100.349 84.4306 100.453 84.4755C100.556 84.5204 100.648 84.5868 100.724 84.6702C100.8 84.7536 100.857 84.8522 100.891 84.9594C100.926 85.0665 100.937 85.1798 100.925 85.2917C100.899 85.5307 100.787 85.752 100.61 85.9143C100.433 86.0766 100.202 86.1688 99.962 86.1737Z" fill="white"/>
<path opacity="0.5" d="M95.953 90.9447H84.944C84.8314 90.9463 84.7197 90.9239 84.6165 90.879C84.5132 90.834 84.4207 90.7677 84.345 90.6843C84.2693 90.6008 84.2123 90.5023 84.1776 90.3951C84.143 90.288 84.1315 90.1747 84.144 90.0627C84.1699 89.824 84.2818 89.6028 84.4589 89.4405C84.6359 89.2782 84.8659 89.1859 85.106 89.1807H96.115C96.2276 89.1792 96.3393 89.2016 96.4425 89.2465C96.5458 89.2914 96.6384 89.3578 96.714 89.4412C96.7897 89.5247 96.8467 89.6232 96.8814 89.7304C96.916 89.8375 96.9275 89.9508 96.915 90.0627C96.8891 90.3015 96.7772 90.5227 96.6001 90.685C96.4231 90.8472 96.1931 90.9396 95.953 90.9447Z" fill="white"/>
<path opacity="0.5" d="M88.244 95.7148H84.508C84.3954 95.7163 84.2837 95.6939 84.1805 95.649C84.0772 95.6041 83.9846 95.5377 83.909 95.4543C83.8333 95.3709 83.7763 95.2723 83.7416 95.1651C83.707 95.058 83.6955 94.9447 83.708 94.8328C83.7339 94.594 83.8458 94.3729 84.0229 94.2106C84.1999 94.0483 84.4299 93.9559 84.67 93.9508H88.408C88.5206 93.9492 88.6323 93.9716 88.7355 94.0166C88.8388 94.0615 88.9314 94.1278 89.007 94.2112C89.0827 94.2947 89.1397 94.3932 89.1744 94.5004C89.209 94.6075 89.2205 94.7208 89.208 94.8328C89.182 95.0718 89.0698 95.2933 88.8924 95.4556C88.715 95.618 88.4845 95.7101 88.244 95.7148Z" fill="white"/>
<path opacity="0.5" d="M98.66 100.487H84.076C83.9634 100.488 83.8518 100.466 83.7485 100.421C83.6452 100.376 83.5527 100.31 83.477 100.226C83.4013 100.143 83.3443 100.044 83.3096 99.9371C83.275 99.83 83.2635 99.7167 83.276 99.6047C83.3019 99.366 83.4138 99.1448 83.5909 98.9825C83.7679 98.8202 83.9979 98.7279 84.238 98.7227H98.822C98.9346 98.7212 99.0463 98.7436 99.1495 98.7885C99.2528 98.8334 99.3454 98.8998 99.421 98.9832C99.4967 99.0666 99.5537 99.1652 99.5884 99.2724C99.623 99.3795 99.6345 99.4928 99.622 99.6047C99.5961 99.8435 99.4842 100.065 99.3071 100.227C99.1301 100.389 98.9001 100.482 98.66 100.487Z" fill="white"/>
<path opacity="0.5" d="M92.483 105.257H83.643C83.5304 105.258 83.4188 105.236 83.3155 105.191C83.2122 105.146 83.1197 105.08 83.044 104.996C82.9683 104.913 82.9113 104.814 82.8766 104.707C82.842 104.6 82.8305 104.487 82.843 104.375C82.8687 104.136 82.9806 103.915 83.1576 103.752C83.3347 103.59 83.5648 103.498 83.805 103.493H92.644C92.7566 103.491 92.8683 103.514 92.9715 103.559C93.0748 103.603 93.1674 103.67 93.243 103.753C93.3187 103.837 93.3757 103.935 93.4104 104.042C93.445 104.15 93.4565 104.263 93.444 104.375C93.4181 104.613 93.3063 104.834 93.1295 104.997C92.9527 105.159 92.7229 105.251 92.483 105.257Z" fill="white"/>
<path opacity="0.5" d="M97.792 110.028H83.208C83.0954 110.029 82.9837 110.007 82.8805 109.962C82.7772 109.917 82.6847 109.851 82.609 109.767C82.5333 109.684 82.4763 109.585 82.4416 109.478C82.407 109.371 82.3955 109.258 82.408 109.146C82.4339 108.907 82.5459 108.686 82.7229 108.524C82.8999 108.361 83.1299 108.269 83.37 108.264H97.952C98.0646 108.262 98.1763 108.285 98.2795 108.33C98.3828 108.374 98.4754 108.441 98.551 108.524C98.6267 108.608 98.6837 108.706 98.7184 108.813C98.753 108.921 98.7645 109.034 98.752 109.146C98.7261 109.384 98.6145 109.605 98.4379 109.767C98.2613 109.93 98.0318 110.022 97.792 110.028Z" fill="white"/>
</g>
<path d="M125.503 71.6987L122.337 68.9478L120.853 74.0117C120.853 74.0117 124.069 75.7558 125.183 74.1548L125.503 71.6987Z" fill="#FFC3BD"/>
<path d="M118.888 68.75L117.858 72.994L120.85 74.014L122.334 68.949L118.888 68.75Z" fill="#FFC3BD"/>
</svg>
