<svg width="18" height="18" viewBox="0 0 18 18" fill="none" xmlns="http://www.w3.org/2000/svg">
<path fill-rule="evenodd" clip-rule="evenodd" d="M4.31673 0.768575C7.40429 0.423496 10.5957 0.423496 13.6832 0.768575C15.5096 0.9727 16.9845 2.41134 17.1994 4.2483C17.5686 7.40523 17.5686 10.5944 17.1994 13.7513C16.9845 15.5883 15.5096 17.0269 13.6832 17.2311C10.5957 17.5761 7.40429 17.5761 4.31673 17.2311C2.49035 17.0269 1.01545 15.5883 0.800605 13.7513C0.431374 10.5944 0.431374 7.40523 0.800605 4.2483C1.01545 2.41134 2.49035 0.9727 4.31673 0.768575ZM10 4.99982C10 5.55211 9.55228 5.99982 9 5.99982C8.44772 5.99982 8 5.55211 8 4.99982C8 4.44754 8.44772 3.99982 9 3.99982C9.55228 3.99982 10 4.44754 10 4.99982ZM9 7.74982C9.41421 7.74982 9.75 8.08561 9.75 8.49982V13.4998C9.75 13.914 9.41421 14.2498 9 14.2498C8.58579 14.2498 8.25 13.914 8.25 13.4998V8.49982C8.25 8.08561 8.58579 7.74982 9 7.74982Z" fill="white"/>
</svg>
