<svg width="18" height="18" viewBox="0 0 18 18" fill="none" xmlns="http://www.w3.org/2000/svg">
<path fill-rule="evenodd" clip-rule="evenodd" d="M4.31649 0.768575C7.40404 0.423496 10.5954 0.423496 13.683 0.768575C15.5094 0.9727 16.9843 2.41134 17.1991 4.2483C17.5683 7.40523 17.5683 10.5944 17.1991 13.7513C16.9843 15.5883 15.5094 17.0269 13.683 17.2311C10.5954 17.5761 7.40404 17.5761 4.31649 17.2311C2.49011 17.0269 1.01521 15.5883 0.80036 13.7513C0.43113 10.5944 0.43113 7.40523 0.80036 4.2483C1.01521 2.41134 2.49011 0.9727 4.31649 0.768575ZM9.99976 4.99982C9.99976 5.55211 9.55204 5.99982 8.99976 5.99982C8.44747 5.99982 7.99976 5.55211 7.99976 4.99982C7.99976 4.44754 8.44747 3.99982 8.99976 3.99982C9.55204 3.99982 9.99976 4.44754 9.99976 4.99982ZM8.99976 7.74982C9.41397 7.74982 9.74976 8.08561 9.74976 8.49982V13.4998C9.74976 13.914 9.41397 14.2498 8.99976 14.2498C8.58554 14.2498 8.24976 13.914 8.24976 13.4998V8.49982C8.24976 8.08561 8.58554 7.74982 8.99976 7.74982Z" fill="white"/>
</svg>
