<svg width="24" height="24" viewBox="0 0 24 24" fill="none" xmlns="http://www.w3.org/2000/svg">
<path fill-rule="evenodd" clip-rule="evenodd" d="M7.30621 7.75828L7.64927 10.8458L6.95505 10.9013C5.98695 10.9785 5.19645 11.7063 5.03952 12.6647C4.67783 14.8736 4.67783 17.1266 5.03952 19.3355C5.19645 20.2939 5.98695 21.0217 6.95505 21.0989L8.45118 21.2184C10.8133 21.407 13.1867 21.407 15.5489 21.2184L17.045 21.0989C18.0131 21.0217 18.8036 20.2939 18.9605 19.3355C19.3222 17.1266 19.3222 14.8736 18.9605 12.6647C18.8036 11.7063 18.0131 10.9785 17.045 10.9013L16.3507 10.8458L16.6937 7.75828C16.7342 7.3943 16.7342 7.02696 16.6937 6.66298L16.671 6.45809C16.4295 4.2847 14.7209 2.56504 12.5491 2.30953C12.1843 2.26661 11.8157 2.26661 11.4509 2.30953C9.27907 2.56504 7.57046 4.2847 7.32898 6.45809L7.30621 6.66298C7.26577 7.02696 7.26577 7.3943 7.30621 7.75828ZM12.3738 3.79926C12.1255 3.77004 11.8745 3.77004 11.6261 3.79926C10.1475 3.97322 8.98422 5.14402 8.8198 6.62373L8.79704 6.82863C8.76883 7.08252 8.76883 7.33875 8.79704 7.59263L9.14583 10.7318C11.0466 10.6099 12.9533 10.6099 14.8541 10.7318L15.2029 7.59263C15.2311 7.33874 15.2311 7.08252 15.2029 6.82863L15.1802 6.62373C15.0157 5.14402 13.8525 3.97322 12.3738 3.79926ZM12 14.5001C11.1716 14.5001 10.5 15.1717 10.5 16.0001C10.5 16.8285 11.1716 17.5001 12 17.5001C12.8284 17.5001 13.5 16.8285 13.5 16.0001C13.5 15.1717 12.8284 14.5001 12 14.5001Z" fill="white"/>
</svg>
