<svg width="136" height="99" viewBox="0 0 136 99" fill="none" xmlns="http://www.w3.org/2000/svg">
<path fill-rule="evenodd" clip-rule="evenodd" d="M98.141 -46.7922C119.395 -51.321 142.296 -42.3442 159.969 -32.6433C177.427 -23.0602 187.309 -8.56625 194.926 6.33607C202.855 21.8465 213.687 39.161 204.396 54.2669C195.23 69.1691 168.759 72.1683 149.366 80.4086C132.401 87.6173 117.795 99.3244 98.141 99.4153C78.4425 99.5064 59.5427 91.5711 46.4398 80.8844C34.6871 71.2989 38.3958 56.7239 31.3599 44.9485C23.1219 31.1612 -4.7936 20.6852 1.98568 6.48483C8.81088 -7.81178 41.4718 -1.74736 58.0332 -10.9236C75.3156 -20.4993 77.2848 -42.3484 98.141 -46.7922Z" fill="#BDBDD7"/>
</svg>
