<svg width="303" height="277" viewBox="0 0 303 277" fill="none" xmlns="http://www.w3.org/2000/svg">
<path fill-rule="evenodd" clip-rule="evenodd" d="M9.28415 246.77C-33.3485 188.927 80.856 173.37 148.694 128.964C185.661 104.766 202.568 78.2955 234.518 79.0143C299.836 80.4838 302.508 203.866 288.638 226.03C236.336 309.606 26.93 270.712 9.28415 246.77Z" fill="#F2F2FF"/>
<path d="M293 142.882H290.983H288.965H257.419C264.056 142.882 269.436 148.262 269.436 154.899V170.317H245.402H239.125C238.39 170.317 237.794 170.912 237.794 171.647V172.184C237.794 172.918 238.39 173.514 239.125 173.514H246.791H257.788H280.355H289.314H301.611C302.378 173.514 303 172.892 303 172.125V152.882C302.999 147.359 298.523 142.882 293 142.882Z" fill="#D2DCFF"/>
<path d="M269.435 154.899C269.435 148.262 264.055 142.882 257.418 142.882C250.781 142.882 245.401 148.262 245.401 154.899V170.317H269.435V154.899Z" fill="#86A2E2"/>
<path d="M275.34 173.514H271.76V250.96H275.34V173.514Z" fill="#D2DCFF"/>
<path d="M275.34 173.514V185.291L271.76 184.465V173.514H275.34Z" fill="#AEC3FF"/>
<path d="M289.605 159.604V131.542C289.605 130.571 290.393 129.783 291.365 129.783H295.868C298.009 129.783 299.744 131.519 299.744 133.66C299.744 135.801 298.008 137.536 295.868 137.536H291.991V159.604C291.991 160.263 291.457 160.797 290.798 160.797C290.139 160.797 289.605 160.263 289.605 159.604Z" fill="#FE9ECC"/>
<path d="M302.999 169.576H269.435V170.317H302.999V169.576Z" fill="#AEC3FF"/>
<path d="M178.465 98.4787H85.0294C82.4003 98.4787 80.2692 96.3476 80.2692 93.7185V4.76017C80.2692 2.13107 82.4003 0 85.0294 0H178.465C181.094 0 183.225 2.13107 183.225 4.76017V93.7185C183.225 96.3476 181.094 98.4787 178.465 98.4787Z" fill="#89AEFF"/>
<path d="M138.562 14.2549H94.2289C93.4398 14.2549 92.8002 13.6154 92.8002 12.8263C92.8002 12.0372 93.4398 11.3975 94.2289 11.3975H138.562C139.351 11.3975 139.991 12.0372 139.991 12.8263C139.991 13.6148 139.351 14.2549 138.562 14.2549Z" fill="#D2DCFF"/>
<path d="M124.31 21.3825H94.2289C93.4398 21.3825 92.8002 20.7428 92.8002 19.9537C92.8002 19.1646 93.4398 18.525 94.2289 18.525H124.31C125.099 18.525 125.739 19.1646 125.739 19.9537C125.739 20.7428 125.099 21.3825 124.31 21.3825Z" fill="#D2DCFF"/>
<path d="M101.743 33.0615H93.8206C93.2569 33.0615 92.8002 32.6048 92.8002 32.0411C92.8002 31.4774 93.2569 31.0206 93.8206 31.0206H101.743C102.307 31.0206 102.764 31.4774 102.764 32.0411C102.764 32.6048 102.307 33.0615 101.743 33.0615Z" fill="#6277D7"/>
<path d="M159.873 68.1054H135.389C134.826 68.1054 134.369 67.6487 134.369 67.0849V62.962C134.369 62.3983 134.826 61.9415 135.389 61.9415H159.873C160.436 61.9415 160.893 62.3983 160.893 62.962V67.0849C160.893 67.6481 160.436 68.1054 159.873 68.1054Z" fill="#D2DCFF"/>
<path d="M169.739 79.3093H135.389C134.826 79.3093 134.369 78.8525 134.369 78.2888V74.1658C134.369 73.6021 134.826 73.1454 135.389 73.1454H169.739C170.302 73.1454 170.759 73.6021 170.759 74.1658V78.2888C170.758 78.8525 170.302 79.3093 169.739 79.3093Z" fill="#D2DCFF"/>
<path d="M108.048 85.9608C108.048 84.9099 108.9 84.0576 109.951 84.0576C102.545 84.0576 96.519 78.0317 96.519 70.625C96.519 63.2183 102.545 57.1926 109.951 57.1926C117.358 57.1926 123.384 63.2183 123.384 70.625C123.384 69.5741 124.236 68.7217 125.287 68.7217C126.339 68.7217 127.191 69.5741 127.191 70.625C127.191 61.1195 119.458 53.3865 109.952 53.3865C100.447 53.3865 92.7135 61.1195 92.7135 70.625C92.7135 80.1305 100.447 87.8637 109.952 87.8637C108.901 87.8643 108.048 87.0118 108.048 85.9608Z" fill="#D2DCFF"/>
<path d="M125.287 68.7224C124.236 68.7224 123.384 69.5749 123.384 70.6258C123.384 78.0324 117.358 84.0582 109.951 84.0582C108.901 84.0582 108.048 84.9099 108.048 85.9615C108.048 87.013 108.9 87.8649 109.951 87.8649C119.457 87.8649 127.19 80.1313 127.19 70.6264C127.19 69.5742 126.338 68.7224 125.287 68.7224Z" fill="#6277D7"/>
<path d="M240.296 66.0018V90.6326C240.296 91.5018 239.591 92.2067 238.722 92.2067H209.112C208.243 92.2067 207.538 91.5018 207.538 90.6326V66.0018C207.538 65.132 208.243 64.4278 209.112 64.4278H238.722C239.591 64.4278 240.296 65.1326 240.296 66.0018Z" fill="#D2DCFF"/>
<path d="M240.296 66.0018V70.6449H207.538V66.0018C207.538 65.132 208.243 64.4278 209.112 64.4278H238.722C239.591 64.4278 240.296 65.1326 240.296 66.0018Z" fill="#6277D7"/>
<path d="M216.416 66.3993C215.967 66.3993 215.603 66.0352 215.603 65.5869V63.2692C215.603 62.8203 215.967 62.4569 216.416 62.4569C216.864 62.4569 217.228 62.8203 217.228 63.2692V65.5869C217.228 66.0352 216.864 66.3993 216.416 66.3993Z" fill="#6277D7"/>
<path d="M231.418 66.3993C230.969 66.3993 230.606 66.0352 230.606 65.5869V63.2692C230.606 62.8203 230.97 62.4569 231.418 62.4569C231.867 62.4569 232.231 62.8203 232.231 63.2692V65.5869C232.231 66.0352 231.867 66.3993 231.418 66.3993Z" fill="#6277D7"/>
<path d="M216.893 82.1165L220.389 78.9763C220.567 78.8155 220.745 78.6332 220.923 78.4293C221.101 78.2261 221.19 77.9887 221.19 77.7173C221.19 77.4124 221.08 77.1727 220.86 76.9988C220.639 76.8254 220.381 76.7381 220.084 76.7381C219.728 76.7381 219.451 76.8487 219.251 77.0687C219.052 77.2893 218.94 77.5607 218.914 77.8823L217.007 77.7424C217.033 77.2761 217.13 76.8714 217.3 76.5282C217.469 76.1851 217.694 75.8989 217.973 75.6699C218.253 75.441 218.581 75.2694 218.959 75.1546C219.336 75.0404 219.745 74.983 220.185 74.983C220.592 74.983 220.974 75.0404 221.329 75.1546C221.686 75.2688 221.995 75.4386 222.258 75.6634C222.52 75.8881 222.726 76.1696 222.875 76.5085C223.023 76.8475 223.097 77.2421 223.097 77.691C223.097 77.9791 223.067 78.2398 223.008 78.473C222.949 78.7061 222.866 78.9177 222.76 79.1084C222.654 79.2991 222.529 79.4755 222.385 79.6363C222.241 79.7977 222.084 79.9543 221.915 80.1067L219.181 82.459H223.173V84.1376H216.892V82.1165H216.893Z" fill="#6277D7"/>
<path d="M227.674 80.9215C227.573 80.9466 227.471 80.9681 227.37 80.9849C227.268 81.0022 227.161 81.01 227.051 81.01C226.628 81.01 226.242 80.9334 225.895 80.781C225.547 80.6285 225.25 80.4205 225.005 80.1581C224.759 79.8957 224.568 79.5842 224.433 79.2237C224.297 78.8633 224.229 78.4802 224.229 78.0731C224.229 77.6068 224.316 77.1853 224.49 76.808C224.663 76.4308 224.901 76.1069 225.202 75.8355C225.503 75.5641 225.857 75.3549 226.264 75.206C226.671 75.0578 227.111 74.9836 227.586 74.9836C228.052 74.9836 228.49 75.0578 228.902 75.206C229.313 75.3543 229.669 75.5641 229.97 75.8355C230.271 76.1069 230.508 76.4308 230.682 76.808C230.855 77.1853 230.943 77.6068 230.943 78.0731C230.943 78.3953 230.913 78.6893 230.853 78.9565C230.794 79.2237 230.715 79.4761 230.619 79.7128C230.521 79.9501 230.406 80.1767 230.275 80.3931C230.144 80.6095 230.006 80.8318 229.862 81.0608L227.891 84.1376H225.565L227.674 80.9215ZM226.136 78.1502C226.136 78.5567 226.269 78.8938 226.536 79.161C226.803 79.4282 227.153 79.5616 227.585 79.5616C228.018 79.5616 228.367 79.4282 228.634 79.161C228.902 78.8938 229.035 78.5573 229.035 78.1502C229.035 77.7431 228.902 77.4066 228.634 77.1393C228.367 76.8721 228.018 76.7387 227.585 76.7387C227.153 76.7387 226.803 76.8721 226.536 77.1393C226.269 77.406 226.136 77.7431 226.136 78.1502Z" fill="#6277D7"/>
<path d="M227.68 88.8691H220.154C219.971 88.8691 219.823 88.7209 219.823 88.538C219.823 88.3551 219.971 88.2068 220.154 88.2068H227.68C227.863 88.2068 228.012 88.3551 228.012 88.538C228.012 88.7209 227.863 88.8691 227.68 88.8691Z" fill="#AEC3FF"/>
<path d="M118.496 217.914C125.595 204.917 103.184 198.805 97.7816 203.96C92.3787 209.116 110.29 232.938 118.496 217.914Z" fill="#FE9ECC"/>
<path d="M127.918 213.947C141.849 213.947 135.544 189.028 129.588 189.028C122.12 189.029 111.821 213.947 127.918 213.947Z" fill="#FE9ECC"/>
<path d="M138.656 222.986C150.141 232.336 160.237 211.415 156.153 205.163C152.068 198.91 125.379 212.178 138.656 222.986Z" fill="#FE9ECC"/>
<path d="M124.009 229.173C122.07 224.687 119.232 220.507 115.575 216.75C109.352 210.36 102.808 207.363 102.742 207.333C102.547 207.246 102.318 207.332 102.23 207.527C102.142 207.721 102.229 207.951 102.423 208.039C102.487 208.068 108.919 211.017 115.039 217.311C118.626 220.998 121.407 225.098 123.304 229.495C123.52 229.995 123.72 230.499 123.912 231.005H124.74C124.512 230.389 124.27 229.778 124.009 229.173Z" fill="#FF78BA"/>
<path d="M129.242 194.138C129.267 193.926 129.115 193.734 128.903 193.708C128.69 193.682 128.498 193.834 128.472 194.046C128.447 194.258 126.494 210.957 126.593 231.005H127.368C127.268 211.009 129.217 194.349 129.242 194.138Z" fill="#FF78BA"/>
<path d="M152.283 207.962C152.164 207.784 151.924 207.736 151.746 207.855C151.691 207.892 146.102 211.651 140.353 217.833C137.222 221.201 133.663 225.714 131.055 231.005H131.921C134.47 225.948 137.891 221.62 140.908 218.373C146.597 212.253 152.121 208.536 152.177 208.499C152.354 208.381 152.402 208.14 152.283 207.962Z" fill="#FF78BA"/>
<path d="M127.368 231.005H126.594H124.74H123.912H113.106C112.691 231.005 112.396 231.411 112.524 231.807L113.206 233.899L113.551 234.959L118.49 250.11C118.624 250.522 119.007 250.8 119.44 250.8H137.24C137.672 250.8 138.056 250.522 138.19 250.11L143.129 234.959L143.474 233.899L144.156 231.807C144.285 231.411 143.99 231.005 143.575 231.005H131.919H131.054H127.368Z" fill="#D2DCFF"/>
<path d="M143.475 233.899L143.13 234.958H113.552L113.207 233.899H143.475Z" fill="#AEC3FF"/>
<path d="M178.465 171.216H85.0294C82.4003 171.216 80.2692 169.085 80.2692 166.456V115.924C80.2692 113.295 82.4003 111.164 85.0294 111.164H178.465C181.094 111.164 183.225 113.295 183.225 115.924V166.456C183.225 169.085 181.094 171.216 178.465 171.216Z" fill="#6277D7"/>
<path d="M171.739 129.838H137.468C136.904 129.838 136.447 129.381 136.447 128.817C136.447 128.254 136.904 127.797 137.468 127.797H171.739C172.303 127.797 172.76 128.254 172.76 128.817C172.76 129.381 172.303 129.838 171.739 129.838Z" fill="#D2DCFF"/>
<path d="M155.574 135.403H137.468C136.904 135.403 136.447 134.946 136.447 134.382C136.447 133.818 136.904 133.362 137.468 133.362H155.574C156.138 133.362 156.594 133.818 156.594 134.382C156.594 134.946 156.138 135.403 155.574 135.403Z" fill="#D2DCFF"/>
<path d="M149.129 155.963H137.468C136.904 155.963 136.447 155.506 136.447 154.942C136.447 154.378 136.904 153.922 137.468 153.922H149.129C149.693 153.922 150.149 154.378 150.149 154.942C150.149 155.506 149.693 155.963 149.129 155.963Z" fill="#89AEFF"/>
<path d="M101.735 146.24V154.551C101.735 155.115 101.278 155.572 100.714 155.572H96.5914C96.0276 155.572 95.5709 155.115 95.5709 154.551V146.24C95.5709 145.676 96.0276 145.22 96.5914 145.22H100.714C101.278 145.22 101.735 145.676 101.735 146.24Z" fill="#D2DCFF"/>
<path d="M112.939 137.835V154.551C112.939 155.114 112.482 155.571 111.918 155.571H107.795C107.231 155.571 106.775 155.114 106.775 154.551V137.835C106.775 137.271 107.231 136.814 107.795 136.814H111.918C112.482 136.815 112.939 137.271 112.939 137.835Z" fill="#D2DCFF"/>
<path d="M124.143 130.858V154.551C124.143 155.115 123.686 155.572 123.123 155.572H119C118.436 155.572 117.979 155.115 117.979 154.551V130.858C117.979 130.294 118.436 129.838 119 129.838H123.123C123.686 129.838 124.143 130.294 124.143 130.858Z" fill="#D2DCFF"/>
<path d="M246.555 183.405C246.555 184.681 247.251 185.795 248.283 186.388L248.588 185.763C249.436 184.019 249.45 181.992 248.636 180.244C247.412 180.771 246.555 181.988 246.555 183.405Z" fill="#F9AFAB"/>
<path d="M209.641 152.32L210.664 150.326C210.384 148.685 210.265 146.901 210.359 144.988C210.38 144.555 210.412 144.117 210.456 143.673C212.589 143.861 218.85 144.112 223.455 141.19C223.115 143.902 224.129 146.908 225.809 149.441C226.013 148.952 226.747 147.44 228.01 147.44C230.538 147.44 230.921 151.48 229.507 153.404C230.483 154.129 231.506 154.676 232.518 154.98C232.518 154.98 232.523 154.976 232.529 154.97V166.6H222.725V161.532C221.407 162.016 220.237 162.293 219.411 162.293C216.943 162.293 213.203 158.983 211.389 153.312H210.248C209.871 153.312 209.567 153.007 209.567 152.631C209.565 152.523 209.591 152.416 209.641 152.32Z" fill="#FCBEB7"/>
<path d="M229.507 153.405C230.921 151.48 230.538 147.44 228.01 147.44C226.747 147.44 226.014 148.953 225.809 149.442C224.129 146.908 223.115 143.903 223.455 141.191C218.849 144.113 212.589 143.862 210.456 143.673C210.412 144.118 210.38 144.557 210.359 144.988C210.174 144.813 209.741 144.326 209.709 143.592C209.708 143.592 209.708 143.592 209.708 143.592C209.708 143.571 209.708 143.55 209.708 143.53C209.708 143.523 209.708 143.517 209.708 143.511C209.708 143.507 209.708 143.503 209.708 143.499C209.764 139.312 213.598 132.203 222.951 132.203C232.861 132.203 234.715 138.655 234.715 138.655C234.715 138.655 238.127 140.524 238.127 144.292C238.127 149.244 232.789 154.708 232.529 154.971C232.522 154.978 232.518 154.982 232.518 154.982C231.506 154.677 230.483 154.13 229.507 153.405Z" fill="#311643"/>
<path d="M222.725 166.6V161.532C225.447 160.533 228.798 158.653 231.043 156.517L222.725 166.6Z" fill="#F9AFAB"/>
<path d="M221.104 154.52C222.572 154.52 223.762 153.33 223.762 151.862C223.762 150.394 222.572 149.205 221.104 149.205C219.636 149.205 218.446 150.394 218.446 151.862C218.446 153.33 219.636 154.52 221.104 154.52Z" fill="#F49795"/>
<path d="M215.422 155.972C215.956 155.972 216.322 155.769 216.543 155.585C216.82 155.356 216.936 155.108 216.948 155.081C217.004 154.958 216.949 154.813 216.826 154.757C216.703 154.701 216.558 154.756 216.503 154.878C216.488 154.911 216.16 155.578 215.219 155.469C215.084 155.454 214.963 155.55 214.947 155.685C214.932 155.819 215.028 155.941 215.163 155.956C215.253 155.967 215.34 155.972 215.422 155.972Z" fill="#311643"/>
<path d="M213.923 148.607C214.217 148.607 214.457 148.368 214.457 148.073V147.075C214.457 146.781 214.217 146.541 213.923 146.541C213.628 146.541 213.389 146.781 213.389 147.075V148.073C213.389 148.368 213.628 148.607 213.923 148.607Z" fill="#311643"/>
<path d="M210.321 147.329H211.969V144.291C211.969 144.156 212.079 144.046 212.214 144.046C212.349 144.046 212.458 144.156 212.458 144.291V150.858C212.458 150.993 212.349 151.102 212.214 151.102C212.079 151.102 211.969 150.993 211.969 150.858V147.819H210.321C210.186 147.819 210.077 147.709 210.077 147.574C210.077 147.439 210.186 147.329 210.321 147.329Z" fill="white"/>
<path d="M194.117 186.647L221.703 197.392L229.848 208.234C231.103 209.904 232.875 211.08 234.857 211.603L222.787 219.914L199.692 207.762L200.643 237.269H190.282L181.622 197.308C180.048 190.044 187.191 183.949 194.117 186.647Z" fill="#6277D7"/>
<path d="M200.643 241.434V248.754C200.643 249.608 199.951 250.3 199.097 250.3H178.333C178.136 250.3 177.976 250.14 177.976 249.942V248.593C177.976 247.942 178.355 247.35 178.947 247.079L191.278 241.433H200.643V241.434Z" fill="#2F3D6C"/>
<path d="M200.643 237.269V241.434H191.278L190.282 237.269H200.643Z" fill="#FCBEB7"/>
<path d="M210.057 213.216L222.787 219.914L232.283 213.216H210.057Z" fill="#4A5EA3"/>
<path d="M181.876 192.372C182.663 192.898 183.61 193.205 184.627 193.205C187.366 193.205 189.585 190.984 189.585 188.246C189.585 187.491 189.417 186.776 189.115 186.136C185.776 186.73 182.959 189.153 181.876 192.372Z" fill="#4A5EA3"/>
<path d="M245.192 173.767L248.48 179.931C249.448 181.745 249.488 183.914 248.588 185.763L248.305 186.344L245.748 175.744C245.587 175.076 245.401 174.417 245.192 173.767Z" fill="#FCBEB7"/>
<path d="M234.857 211.603C234.792 211.586 234.728 211.569 234.664 211.55C232.76 211.003 231.063 209.85 229.848 208.234L221.703 197.392L222.343 175.35L214.133 177.138L210.878 166.865L232.524 158.327C238.569 161.698 243.083 167.228 245.192 173.767C245.401 174.416 245.587 175.076 245.748 175.744L248.305 186.344L254.576 212.341L236.978 211.906C236.254 211.888 235.543 211.785 234.857 211.603Z" fill="#89AEFF"/>
<path d="M222.231 179.19L232.979 172.425L222.343 175.354L222.231 179.19Z" fill="#4A62D3"/>
<path d="M251.367 240.686L255.23 236.917C255.984 236.181 257.157 236.093 258.013 236.706L274.57 248.576C274.783 248.729 274.831 249.025 274.679 249.238L273.952 250.252C273.568 250.788 272.944 251.101 272.284 251.088L265.636 250.96L251.367 240.686Z" fill="#2F3D6C"/>
<path d="M251.367 250.959H265.636L251.367 240.686V250.959Z" fill="#FCBEB7"/>
<path d="M204.306 232.789L234.664 211.55C234.728 211.569 234.792 211.587 234.857 211.603C235.543 211.785 236.254 211.888 236.978 211.906L254.576 212.341C254.576 219.907 250.032 226.732 243.053 229.65L225.18 237.124L251.367 240.686V250.959H210.032C200.265 250.959 196.304 238.387 204.306 232.789Z" fill="#6277D7"/>
<path d="M202.791 247.901C204.193 247.026 205.126 245.469 205.126 243.694C205.126 240.985 202.953 238.783 200.256 238.736C199.539 241.988 200.524 245.485 202.791 247.901Z" fill="#4A5EA3"/>
<path d="M166.769 144.491L173.006 142.419C173.376 142.296 173.78 142.33 174.124 142.513L177.981 144.569L178.854 144.759C179.18 144.83 179.449 145.058 179.572 145.367L181.09 149.165L206.952 168.274L210.878 166.865L214.133 177.139L206.544 178.706C204.781 179.07 202.953 178.52 201.685 177.243L177.407 152.798L172.949 150.177C172.538 149.936 172.279 149.501 172.261 149.025L172.243 148.552L171.954 148.274C171.65 147.981 171.495 147.565 171.532 147.145L171.567 146.753C171.242 146.436 171.092 145.981 171.163 145.533L171.226 145.138L167.021 145.63C166.757 145.661 166.506 145.511 166.408 145.264C166.284 144.951 166.448 144.597 166.769 144.491Z" fill="#FCBEB7"/>
<path d="M201.25 176.805L201.685 177.242C202.954 178.52 204.781 179.07 206.544 178.706L206.9 178.633V178.632C206.694 177.016 205.315 175.767 203.644 175.767C202.7 175.767 201.848 176.166 201.25 176.805Z" fill="#F9AFAB"/>
<path d="M49.9987 69.1695C49.9987 62.7474 44.3346 57.5436 35.8412 57.5436C28.7824 57.5436 26.3566 61.4388 26.3566 61.4388C26.3566 61.4388 19.6846 62.8807 19.6846 71.1715C19.6846 78.8788 19.6846 92.1379 19.6846 92.1379H30.6481H31.2071H39.3036H48.1049V74.8712C48.8001 74.0175 49.9987 72.1185 49.9987 69.1695ZM36.8156 87.9456C36.222 87.9456 35.5739 87.8362 34.8978 87.6455V92.1379H25.1974V80.5802C25.1311 80.3948 25.0659 80.1964 25.0026 79.9878C20.702 79.5771 20.8802 72.47 23.4357 72.47C23.4704 72.47 23.5045 72.4729 23.538 72.4777V72.4771C34.2803 75.9114 41.5047 70.2844 43.8683 66.3748C43.8683 69.1031 46.8878 71.7633 47.962 72.006C47.8024 81.756 40.8274 87.9456 36.8156 87.9456Z" fill="#311643"/>
<path d="M34.8978 88.7018V87.645C35.5739 87.8357 36.222 87.945 36.8156 87.945C40.828 87.945 47.803 81.7554 47.9614 72.0048C46.8872 71.7621 43.8677 69.102 43.8677 66.3737C41.5041 70.2838 34.2797 75.9103 23.5374 72.4759V72.4765C23.5039 72.4717 23.4704 72.4688 23.4351 72.4688C20.8796 72.4688 20.7014 79.5759 25.002 79.9866C25.0653 80.1952 25.1305 80.3937 25.1968 80.579V88.354L17.5995 91.9347V101.312H42.8461V91.0894L34.8978 88.7018Z" fill="#FCBEB7"/>
<path d="M42.8461 101.313V91.0906L34.8978 88.7018V87.645C32.6501 87.0107 30.0952 85.4743 28.2187 84.0408L42.8461 101.313Z" fill="#F9AFAB"/>
<path d="M29.7168 80.2376C31.1783 80.2376 32.3632 79.0528 32.3632 77.5912C32.3632 76.1296 31.1783 74.9448 29.7168 74.9448C28.2552 74.9448 27.0703 76.1296 27.0703 77.5912C27.0703 79.0528 28.2552 80.2376 29.7168 80.2376Z" fill="#F49795"/>
<path d="M47.6207 75.3937C47.2853 77.1709 46.7228 78.7909 46.0126 80.2334C44.6132 80.164 43.5001 79.0074 43.5001 77.5906C43.5001 76.129 44.6849 74.9442 46.1459 74.9442C46.6917 74.9448 47.1992 75.1103 47.6207 75.3937Z" fill="#F49795"/>
<path d="M43.145 69.5427C41.2129 69.5427 39.6174 71.0113 39.4166 72.8914C38.3662 72.397 37.4391 72.6649 36.9495 72.8896C36.7474 71.0108 35.1531 69.5427 33.2216 69.5427C31.1539 69.5427 29.4717 71.2248 29.4717 73.2926C29.4717 75.3604 31.1539 77.0425 33.2216 77.0425C35.2434 77.0425 36.8951 75.4345 36.968 73.4301C37.2794 73.2507 38.2688 72.7941 39.398 73.4343C39.4728 75.4363 41.1245 77.0425 43.1444 77.0425C45.2122 77.0425 46.8944 75.3604 46.8944 73.2926C46.895 71.2248 45.2128 69.5427 43.145 69.5427ZM33.2216 76.5523C31.4247 76.5523 29.9625 75.0901 29.9625 73.2932C29.9625 71.4956 31.4247 70.0333 33.2216 70.0333C35.0192 70.0333 36.4814 71.4956 36.4814 73.2932C36.4808 75.0901 35.0186 76.5523 33.2216 76.5523ZM43.145 76.5523C41.348 76.5523 39.8858 75.0901 39.8858 73.2932C39.8858 71.4956 41.348 70.0333 43.145 70.0333C44.9426 70.0333 46.4048 71.4956 46.4048 73.2932C46.4042 75.0901 44.942 76.5523 43.145 76.5523Z" fill="white"/>
<path d="M43.1474 74.3278C42.8521 74.3278 42.6124 74.0881 42.6124 73.7928V72.7934C42.6124 72.4975 42.8521 72.2578 43.1474 72.2578C43.4427 72.2578 43.6824 72.4975 43.6824 72.7934V73.7928C43.6824 74.0881 43.4427 74.3278 43.1474 74.3278Z" fill="#311643"/>
<path d="M33.3842 74.3278C33.0889 74.3278 32.8492 74.0881 32.8492 73.7928V72.7934C32.8492 72.4975 33.0889 72.2578 33.3842 72.2578C33.6795 72.2578 33.9192 72.4975 33.9192 72.7934V73.7928C33.9192 74.0881 33.6795 74.3278 33.3842 74.3278Z" fill="#311643"/>
<path d="M37.2047 82.0472C36.2494 82.0472 35.599 81.6879 35.2051 81.3609C34.7083 80.9485 34.5021 80.4983 34.4931 80.4791C34.4375 80.3554 34.4925 80.2107 34.6163 80.1551C34.7394 80.0995 34.8847 80.1545 34.9403 80.277C34.9684 80.338 35.6469 81.7602 37.6178 81.5324C37.7529 81.5169 37.8743 81.6132 37.8898 81.7477C37.9053 81.8822 37.8091 82.0041 37.674 82.0196C37.5102 82.0381 37.3536 82.0472 37.2047 82.0472Z" fill="#311643"/>
<path d="M53.2023 237.722L54.206 241.894L65.1522 245.332L63.5782 237.722H53.2023Z" fill="#FCBEB7"/>
<path d="M16.3214 237.722L16.6203 242.875L15.9382 243.127L15.4887 245.333L26.4241 241.894L26.6973 237.722H16.3214Z" fill="#FCBEB7"/>
<path d="M73.5948 246.952L64.6961 243.126L65.1522 245.332L54.206 241.894V245.031C54.206 246.134 54.7829 247.133 55.6897 247.696L56.6312 250.387C56.7125 250.62 56.9319 250.776 57.1788 250.776C57.4992 250.776 57.7587 250.516 57.7587 250.196V248.446L65.2401 250.776H72.8081C73.9087 250.776 74.8006 249.884 74.8006 248.784C74.8 247.986 74.3259 247.266 73.5948 246.952Z" fill="#2F3D6C"/>
<path d="M26.4343 245L26.4253 241.864L15.4893 245.334L15.9388 243.128L7.05141 246.979C6.3209 247.296 5.84865 248.017 5.85104 248.813C5.85403 249.914 6.74892 250.803 7.84946 250.8L15.4175 250.777L23.1536 248.343L23.159 250.176C23.1602 250.496 23.4202 250.755 23.7406 250.753C23.9869 250.753 24.2063 250.596 24.287 250.364L25.308 247.417C26.0086 246.831 26.4367 245.954 26.4343 245Z" fill="#2F3D6C"/>
<path d="M17.9767 132.798L13.9392 149.895C12.7735 154.833 12.3138 159.91 12.575 164.977L16.322 237.722H26.6979L31.1282 162.226L53.2023 237.722H63.5782L45.309 132.797H17.9767V132.798Z" fill="#6277D7"/>
<path d="M31.7056 96.6884C33.548 96.6884 35.0216 94.914 36.0151 93.1171H25.5089C27.111 94.9093 29.3055 96.6884 31.7056 96.6884Z" fill="white"/>
<path d="M51.3647 96.8258C49.7452 94.3049 47.2823 92.4417 44.4159 91.5689L37.4528 89.4484C37.4528 89.7413 36.9435 91.4391 36.0157 93.1171C35.0222 94.914 33.5486 96.6884 31.7062 96.6884C29.3061 96.6884 27.1116 94.9092 25.5089 93.1171C23.8829 91.2986 22.8672 89.467 22.8672 89.467L15.6333 92.8189C12.6725 94.1908 10.4923 96.83 9.70502 99.9971L4.36791 121.459L14.1819 121.461L16.5904 113.128L17.9773 132.798H45.3096L47.7929 111.862L54.3034 117.718L59.7045 109.806L51.3647 96.8258Z" fill="#FE9ECC"/>
<path d="M90.7569 88.7017L90.3408 88.6324L90.2757 88.3777C90.1531 87.8983 89.7371 87.5516 89.2433 87.5181L83.4082 87.1242L79.3492 85.4737L81.6154 82.6456C81.9908 82.1769 81.9382 81.4977 81.4953 81.0924L76.7147 84.7761C76.2454 85.1371 75.8563 85.592 75.5717 86.1109L74.2578 88.5051L74.2518 88.4974L54.3028 117.718L57.0437 120.222C59.3093 122.292 62.9266 121.619 64.2967 118.873L77.2569 92.8923L81.9801 93.3419C83.0424 93.443 84.1142 93.3359 85.1358 93.0274L87.6358 92.2719C88.0602 92.1433 88.282 91.677 88.1128 91.2669L89.8937 90.9243C90.2261 90.8604 90.4777 90.5866 90.5136 90.2495L90.5441 89.9614H90.6535C91.0032 89.9614 91.2871 89.6774 91.2871 89.3277C91.2865 89.0168 91.0624 88.7525 90.7569 88.7017Z" fill="#FCBEB7"/>
<path d="M59.7039 109.806L52.1197 115.754L54.3028 117.718L59.7039 109.806Z" fill="#FF78BA"/>
<path d="M31.9758 99.2444C30.4562 99.2444 28.9103 98.7824 27.38 97.8702C26.1653 97.1463 24.9577 96.139 23.7908 94.8752C21.8103 92.7316 20.607 90.5412 20.595 90.5191L20.9973 90.3325C21.0093 90.3535 22.1792 92.475 24.1244 94.5793C25.2614 95.8089 26.4349 96.7882 27.6119 97.4888C29.0706 98.3574 30.5387 98.7974 31.9752 98.7974C33.3328 98.7974 34.5553 98.3436 35.6092 97.4493C36.4617 96.7254 37.2089 95.7128 37.83 94.4395C38.8953 92.2545 39.2229 90.0098 39.2265 89.9877L39.6587 90.1192C39.6455 90.2124 39.3269 92.3872 38.2311 94.6349C37.5831 95.9644 36.7982 97.0255 35.8986 97.7895C34.7615 98.7549 33.4422 99.2444 31.9758 99.2444Z" fill="white"/>
<path d="M48.2627 190.849C51.0056 190.849 53.2292 188.626 53.2292 185.883C53.2292 183.14 51.0056 180.916 48.2627 180.916C45.5198 180.916 43.2962 183.14 43.2962 185.883C43.2962 188.626 45.5198 190.849 48.2627 190.849Z" fill="#4A5EA3"/>
<path d="M22.2425 190.849C24.9855 190.849 27.209 188.626 27.209 185.883C27.209 183.14 24.9855 180.916 22.2425 180.916C19.4996 180.916 17.2761 183.14 17.2761 185.883C17.2761 188.626 19.4996 190.849 22.2425 190.849Z" fill="#4A5EA3"/>
<path d="M50.6916 95.8766C50.1912 96.2066 49.5916 96.3983 48.9472 96.3983C47.1957 96.3983 45.7747 94.9786 45.7747 93.2265C45.7747 92.8493 45.8405 92.4877 45.9618 92.1523C47.8126 92.9934 49.4368 94.2703 50.6916 95.8766Z" fill="#FF78BA"/>
<path d="M15.6758 95.0259C15.6758 96.7774 14.256 98.1983 12.5033 98.1983C11.7997 98.1983 11.1499 97.9694 10.6238 97.5814C11.6126 95.7007 13.1435 94.1405 15.0373 93.1171C15.4385 93.6485 15.6758 94.3097 15.6758 95.0259Z" fill="#FF78BA"/>
<path d="M25.6583 138.765L48.4397 137.905C48.8498 137.89 49.169 137.545 49.154 137.135L47.9351 104.866C47.9196 104.456 47.5747 104.137 47.1652 104.152L24.3838 105.012C23.9738 105.028 23.6545 105.373 23.6695 105.782L24.8884 138.051C24.9039 138.461 25.2483 138.781 25.6583 138.765Z" fill="#4A5EA3"/>
<path d="M25.5866 137.025L48.2526 139.473C48.6603 139.517 49.0267 139.222 49.0709 138.814L52.5381 106.709C52.5824 106.301 52.2871 105.935 51.8794 105.891L29.2134 103.443C28.8057 103.399 28.4393 103.694 28.395 104.102L24.9278 136.207C24.8842 136.615 25.1789 136.981 25.5866 137.025Z" fill="#4A5EA3"/>
<path d="M52.5519 124.195C52.534 123.763 52.3421 123.356 52.0199 123.068L51.5942 122.688L51.5745 122.486C51.4992 121.726 50.8781 121.136 50.1153 121.098L47.3606 120.963L48.8121 118.722C48.9095 118.572 48.9394 118.388 48.8952 118.214C48.787 117.793 48.3004 117.6 47.9327 117.832L40.0879 122.781L14.1819 121.461L4.36732 121.459L3.18488 125.642C2.26129 128.909 4.92745 132.076 8.30379 131.724L40.0879 128.414L49.1259 129.803L49.5282 129.694C50.2211 129.507 50.7047 128.881 50.7113 128.163L50.7167 127.605L50.7322 127.598C51.3246 127.333 51.6982 126.736 51.6785 126.088L51.6683 125.76L52.0007 125.471C52.3696 125.152 52.5722 124.682 52.5519 124.195Z" fill="#FCBEB7"/>
<path d="M9.10842 128.948C9.10842 130.13 8.48492 131.166 7.54877 131.745C5.08228 131.622 3.15021 129.624 3.00853 127.243C3.5848 126.294 4.62855 125.66 5.82055 125.66C7.63665 125.66 9.10842 127.132 9.10842 128.948Z" fill="#F9AFAB"/>
<path d="M63.6726 119.818C62.0861 121.679 59.2286 122.007 57.2529 120.401C57.4305 118.753 58.8263 117.469 60.5211 117.469C62.0108 117.469 63.2685 118.46 63.6726 119.818Z" fill="#F9AFAB"/>
<path d="M26.8294 138.721C26.8294 138.721 47.0671 142.897 47.0635 142.876C47.06 142.856 46.4371 139.277 46.4371 139.277L37.5407 138.316L26.8294 138.721Z" fill="#4A5EA3"/>
<path d="M26.3859 104.936L26.4534 122.086L28.3131 104.864L26.3859 104.936Z" fill="#2F3D6C"/>
</svg>
