<svg width="300" height="232" viewBox="0 0 300 232" fill="none" xmlns="http://www.w3.org/2000/svg">
<path d="M23.4984 221.37H2.8102C1.25816 221.37 0 220.112 0 218.56V120.666C0 119.114 1.25816 117.856 2.8102 117.856H23.4984V221.37Z" fill="#86A2E2"/>
<path d="M83.105 221.37H23.4984V117.856H83.105C84.657 117.856 85.9152 119.114 85.9152 120.666V218.56C85.9152 220.112 84.657 221.37 83.105 221.37Z" fill="#AEC3FF"/>
<path d="M79.4096 126.467H30.0045V150.345H79.4096V126.467Z" fill="#D2DCFF"/>
<path d="M11.3116 221.37H5.65576V231.313H11.3116V221.37Z" fill="#D2DCFF"/>
<path d="M29.1542 221.37H23.4984V231.313H29.1542V221.37Z" fill="#D2DCFF"/>
<path d="M64.6434 221.37H58.9875V231.313H64.6434V221.37Z" fill="#D2DCFF"/>
<path d="M82.4853 221.37H76.8295V231.313H82.4853V221.37Z" fill="#D2DCFF"/>
<path d="M64.7337 147.051H47.1089C46.6852 147.051 46.3411 146.707 46.3411 146.283V146.238C46.3411 145.814 46.6846 145.471 47.1089 145.471H64.7331C65.1568 145.471 65.5009 145.814 65.5009 146.238V146.283C65.5009 146.707 65.1574 147.051 64.7337 147.051Z" fill="#AEC3FF"/>
<path d="M79.4096 157.674H30.0045V181.552H79.4096V157.674Z" fill="#D2DCFF"/>
<path d="M64.7337 178.257H47.1089C46.6852 178.257 46.3411 177.913 46.3411 177.489V177.445C46.3411 177.021 46.6846 176.677 47.1089 176.677H64.7331C65.1568 176.677 65.5009 177.021 65.5009 177.445V177.489C65.5009 177.913 65.1574 178.257 64.7337 178.257Z" fill="#AEC3FF"/>
<path d="M79.4096 188.88H30.0045V212.758H79.4096V188.88Z" fill="#D2DCFF"/>
<path d="M64.7337 209.464H47.1089C46.6852 209.464 46.3411 209.12 46.3411 208.696V208.651C46.3411 208.227 46.6846 207.883 47.1089 207.883H64.7331C65.1568 207.883 65.5009 208.227 65.5009 208.651V208.696C65.5009 209.12 65.1574 209.464 64.7337 209.464Z" fill="#AEC3FF"/>
<path d="M5.65576 221.37H11.3116V223.931L5.65576 223.651V221.37Z" fill="#AEC3FF"/>
<path d="M23.4984 221.37H29.1542V224.812L23.4984 224.532V221.37Z" fill="#AEC3FF"/>
<path d="M58.9875 221.37H64.6434V227.013L58.9875 226.733V221.37Z" fill="#AEC3FF"/>
<path d="M82.4853 221.37V227.894L76.8295 227.614V221.37H82.4853Z" fill="#AEC3FF"/>
<path d="M61.0052 110.022H69.9964C70.4396 110.022 70.7837 110.409 70.7311 110.85L69.9705 117.204C69.9262 117.576 69.6105 117.856 69.2358 117.856H61.7659C61.3912 117.856 61.076 117.576 61.0312 117.204L60.2705 110.85C60.218 110.41 60.562 110.022 61.0052 110.022Z" fill="#D2DCFF"/>
<path d="M68.5878 107.43V104.54L66.8593 107.824V102.491L65.5008 105.849L64.1429 102.491V107.824L62.4144 104.54V107.43L59.8958 103.379L61.0052 110.022H65.5008H69.9964L71.1064 103.379L68.5878 107.43Z" fill="#6277D7"/>
<path d="M261.914 198.849C268.922 186.018 246.799 179.985 241.465 185.075C236.132 190.165 253.813 213.681 261.914 198.849Z" fill="#FE9ECC"/>
<path d="M271.215 194.933C284.968 194.933 278.744 170.334 272.864 170.334C265.491 170.334 255.325 194.933 271.215 194.933Z" fill="#FE9ECC"/>
<path d="M281.815 203.856C293.153 213.086 303.119 192.433 299.087 186.262C295.055 180.089 268.709 193.187 281.815 203.856Z" fill="#FE9ECC"/>
<path d="M267.356 209.963C265.442 205.535 262.641 201.409 259.03 197.701C252.888 191.392 246.427 188.433 246.362 188.404C246.17 188.318 245.943 188.403 245.856 188.595C245.77 188.787 245.854 189.014 246.047 189.101C246.11 189.129 252.459 192.041 258.501 198.253C262.042 201.894 264.787 205.941 266.66 210.282C266.873 210.774 267.07 211.272 267.26 211.773H268.078C267.852 211.164 267.614 210.561 267.356 209.963Z" fill="#FF78BA"/>
<path d="M272.522 175.378C272.547 175.169 272.397 174.979 272.187 174.953C271.977 174.928 271.788 175.078 271.762 175.287C271.738 175.496 269.809 191.981 269.908 211.772H270.672C270.574 192.033 272.497 175.587 272.522 175.378Z" fill="#FF78BA"/>
<path d="M295.268 189.025C295.15 188.849 294.913 188.802 294.738 188.919C294.683 188.956 289.166 192.667 283.491 198.77C280.4 202.094 276.886 206.55 274.312 211.773H275.167C277.683 206.78 281.06 202.508 284.039 199.303C289.654 193.262 295.108 189.592 295.163 189.555C295.338 189.438 295.385 189.201 295.268 189.025Z" fill="#FF78BA"/>
<path d="M270.672 211.773H269.908H268.078H267.261H256.593C256.183 211.773 255.892 212.173 256.019 212.563L256.692 214.629L257.033 215.675L261.908 230.633C262.04 231.039 262.419 231.314 262.845 231.314H280.418C280.844 231.314 281.223 231.039 281.355 230.633L286.231 215.675L286.572 214.629L287.245 212.563C287.372 212.173 287.081 211.773 286.671 211.773H275.165H274.31H270.672Z" fill="#D2DCFF"/>
<path d="M286.573 214.629L286.232 215.675H257.033L256.692 214.629H286.573Z" fill="#AEC3FF"/>
<path d="M274.936 59.2827H182.699C180.104 59.2827 178 57.1788 178 54.5834V4.69914C178 2.10375 180.104 0 182.699 0H274.936C277.532 0 279.636 2.10375 279.636 4.69914V54.5834C279.636 57.1788 277.532 59.2827 274.936 59.2827Z" fill="#89AEFF"/>
<path d="M203.258 44.7803C203.258 43.7428 204.099 42.9013 205.137 42.9013C197.825 42.9013 191.877 36.9528 191.877 29.6411C191.877 22.3294 197.825 16.3809 205.137 16.3809C212.449 16.3809 218.397 22.3294 218.397 29.6411C218.397 28.6036 219.238 27.7621 220.276 27.7621C221.314 27.7621 222.155 28.603 222.155 29.6411C222.155 20.2574 214.521 12.6234 205.138 12.6234C195.754 12.6234 188.12 20.258 188.12 29.6411C188.12 39.0247 195.754 46.6586 205.138 46.6586C204.099 46.6592 203.258 45.8177 203.258 44.7803Z" fill="#E1E9FF"/>
<path d="M220.276 27.7626C219.238 27.7626 218.397 28.6036 218.397 29.6417C218.397 36.9534 212.448 42.9018 205.137 42.9018C204.099 42.9018 203.258 43.7428 203.258 44.7809C203.258 45.8189 204.099 46.6597 205.137 46.6597C214.52 46.6597 222.154 39.0259 222.154 29.6422C222.155 28.6036 221.314 27.7626 220.276 27.7626Z" fill="#6277D7"/>
<path d="M268.297 18.4345H234.465C233.909 18.4345 233.458 17.9836 233.458 17.4271C233.458 16.8706 233.909 16.4197 234.465 16.4197H268.297C268.854 16.4197 269.305 16.8706 269.305 17.4271C269.305 17.983 268.854 18.4345 268.297 18.4345Z" fill="#E1E9FF"/>
<path d="M252.339 23.9279H234.465C233.909 23.9279 233.458 23.4772 233.458 22.9207C233.458 22.3642 233.909 21.9133 234.465 21.9133H252.339C252.896 21.9133 253.347 22.3642 253.347 22.9207C253.347 23.4772 252.896 23.9279 252.339 23.9279Z" fill="#E1E9FF"/>
<path d="M245.977 44.2243H234.465C233.909 44.2243 233.458 43.7734 233.458 43.2169C233.458 42.6604 233.909 42.2095 234.465 42.2095H245.977C246.534 42.2095 246.984 42.6604 246.984 43.2169C246.984 43.7734 246.534 44.2243 245.977 44.2243Z" fill="#6277D7"/>
<path d="M105.469 52.0117C105.469 45.6719 99.8776 40.5354 91.4931 40.5354C84.5248 40.5354 82.1301 44.3808 82.1301 44.3808C82.1301 44.3808 75.5436 45.8041 75.5436 53.9887C75.5436 61.5972 75.5436 74.6863 75.5436 74.6863H86.366H86.9178H94.9105H103.599V57.6409C104.285 56.7976 105.469 54.9228 105.469 52.0117ZM92.4544 70.547C91.8684 70.547 91.2287 70.439 90.5613 70.2508V74.6857H80.9852V63.276C80.9197 63.0931 80.8554 62.8971 80.7928 62.6912C76.5475 62.2858 76.7233 55.2698 79.2461 55.2698C79.2803 55.2698 79.314 55.2727 79.347 55.2774V55.2768C89.9517 58.6671 97.0834 53.1122 99.4167 49.2528C99.4167 51.9461 102.397 54.5723 103.458 54.8119C103.301 64.4363 96.4153 70.547 92.4544 70.547Z" fill="#311643"/>
<path d="M90.5613 70.8615V70.2508C91.2287 70.439 91.8684 70.547 92.4544 70.547C96.4153 70.547 103.301 64.4368 103.457 54.8112C102.397 54.5716 99.4161 51.9455 99.4161 49.2522C97.0828 53.1122 89.9511 58.6665 79.3464 55.2762V55.2768C79.3134 55.2721 79.2803 55.2692 79.2455 55.2692C76.7227 55.2692 76.5469 62.2852 80.7923 62.6906C80.8548 62.8966 80.9191 63.0919 80.9846 63.2754V70.9507L73.4847 74.4861V83.7429H98.4076V74.3983L90.5613 70.8615Z" fill="#FCBEB7"/>
<path d="M98.4082 83.7435V74.3988L90.5612 70.8615V70.2508C88.3423 69.6247 85.8201 68.108 83.9677 66.6929L98.4082 83.7435Z" fill="#F9AFAB"/>
<path d="M85.4466 62.9378C86.8895 62.9378 88.0591 61.7682 88.0591 60.3253C88.0591 58.8825 86.8895 57.7128 85.4466 57.7128C84.0038 57.7128 82.8341 58.8825 82.8341 60.3253C82.8341 61.7682 84.0038 62.9378 85.4466 62.9378Z" fill="#F49795"/>
<path d="M103.122 58.1562C102.791 59.9106 102.235 61.5104 101.534 62.9338C100.153 62.8654 99.0538 61.7234 99.0538 60.3248C99.0538 58.8819 100.223 57.7123 101.666 57.7123C102.205 57.7129 102.706 57.8765 103.122 58.1562Z" fill="#F49795"/>
<path d="M98.7027 52.3806C96.7954 52.3806 95.2203 53.8305 95.022 55.6865C93.9852 55.1985 93.0699 55.4629 92.5866 55.6848C92.3871 53.83 90.8132 52.3806 88.9065 52.3806C86.8653 52.3806 85.2047 54.0411 85.2047 56.0824C85.2047 58.1237 86.8653 59.7843 88.9065 59.7843C90.9024 59.7843 92.5329 58.1968 92.6049 56.2181C92.9123 56.0411 93.889 55.5903 95.0038 56.2223C95.0775 58.1986 96.7081 59.7843 98.7021 59.7843C100.743 59.7843 102.404 58.1237 102.404 56.0824C102.405 54.0406 100.744 52.3806 98.7027 52.3806ZM88.9065 59.2999C87.1326 59.2999 85.6891 57.8563 85.6891 56.0818C85.6891 54.3079 87.1326 52.8645 88.9065 52.8645C90.6811 52.8645 92.1245 54.3079 92.1245 56.0818C92.1245 57.8563 90.6811 59.2999 88.9065 59.2999ZM98.7027 59.2999C96.9288 59.2999 95.4853 57.8563 95.4853 56.0818C95.4853 54.3079 96.9288 52.8645 98.7027 52.8645C100.477 52.8645 101.921 54.3079 101.921 56.0818C101.921 57.8563 100.477 59.2999 98.7027 59.2999Z" fill="white"/>
<path d="M98.705 58.735C98.4135 58.735 98.1769 58.4984 98.1769 58.2068V57.2201C98.1769 56.9285 98.4135 56.6919 98.705 56.6919C98.9966 56.6919 99.2332 56.9285 99.2332 57.2201V58.2068C99.2332 58.4984 98.9972 58.735 98.705 58.735Z" fill="#311643"/>
<path d="M89.067 58.735C88.7755 58.735 88.5389 58.4984 88.5389 58.2068V57.2201C88.5389 56.9285 88.7755 56.6919 89.067 56.6919C89.3586 56.6919 89.5952 56.9285 89.5952 57.2201V58.2068C89.5958 58.4984 89.3592 58.735 89.067 58.735Z" fill="#311643"/>
<path d="M92.8392 64.7242C91.8961 64.7242 91.2541 64.3695 90.8652 64.0467C90.3748 63.6396 90.1712 63.1951 90.1623 63.1762C90.1074 63.0541 90.1617 62.9113 90.2839 62.8558C90.4055 62.8009 90.5489 62.8553 90.6037 62.9763C90.6315 63.0359 91.3013 64.4403 93.2469 64.2155C93.3803 64.2001 93.5001 64.2952 93.5154 64.4285C93.5308 64.5613 93.4358 64.6818 93.3024 64.6971C93.1401 64.7154 92.9855 64.7242 92.8392 64.7242Z" fill="#311643"/>
<path d="M108.676 218.403L109.667 222.522L120.474 225.915L118.919 218.403H108.676Z" fill="#FCBEB7"/>
<path d="M72.2691 218.403L72.5635 223.49L71.8908 223.739L71.4464 225.917L82.2422 222.522L82.5119 218.403H72.2691Z" fill="#FCBEB7"/>
<path d="M128.808 227.514L120.023 223.738L120.473 225.915L109.667 222.522V225.618C109.667 226.707 110.237 227.694 111.132 228.249L112.061 230.906C112.142 231.135 112.358 231.289 112.602 231.289C112.918 231.289 113.174 231.033 113.174 230.717V228.989L120.56 231.289H128.031C129.117 231.289 129.998 230.409 129.998 229.323C129.998 228.536 129.53 227.825 128.808 227.514Z" fill="#2F3D6C"/>
<path d="M82.2517 225.588L82.2428 222.492L71.447 225.917L71.8908 223.739L63.1173 227.541C62.3962 227.854 61.93 228.565 61.9323 229.352C61.9353 230.438 62.8187 231.316 63.9051 231.312L71.3762 231.291L79.013 228.887L79.0183 230.696C79.0195 231.013 79.2762 231.268 79.5925 231.267C79.8357 231.267 80.0523 231.112 80.1319 230.882L81.1399 227.973C81.8315 227.395 82.2546 226.53 82.2517 225.588Z" fill="#2F3D6C"/>
<path d="M73.9031 114.824L69.9174 131.702C68.7666 136.577 68.3128 141.589 68.5707 146.591L72.2697 218.403H82.5125L86.886 143.875L108.677 218.403H118.92L100.885 114.823H73.9031V114.824Z" fill="#6277D7"/>
<path d="M87.456 79.1776C89.2748 79.1776 90.7295 77.4262 91.7103 75.6523H81.3381C82.9203 77.4215 85.0866 79.1776 87.456 79.1776Z" fill="white"/>
<path d="M105.332 80.5899C104.045 78.0175 101.908 75.9686 99.2834 74.7913L93.1283 72.0307C93.1283 72.3199 92.6256 73.9958 91.7097 75.6523C90.7289 77.4262 89.2742 79.1777 87.4554 79.1777C85.0861 79.1777 82.9197 77.4215 81.3376 75.6523C79.7324 73.8571 78.7298 72.049 78.7298 72.049L71.5886 75.3572C68.6657 76.7116 66.5135 79.317 65.7363 82.4435L61.5623 99.228C60.8819 101.965 61.6656 104.859 63.6343 106.878C66.9207 105.725 73.0911 103.323 73.0911 103.323L73.9019 114.824H100.884L107.587 85.1009L105.332 80.5899Z" fill="#FE9ECC"/>
<path d="M87.7222 81.7011C86.222 81.7011 84.696 81.2443 83.1852 80.3444C81.9861 79.6297 80.794 78.6353 79.6421 77.3878C77.687 75.271 76.4961 73.1106 76.4843 73.0893L76.885 72.9035C76.8968 72.9247 78.0511 75.0191 79.972 77.0958C81.0944 78.3103 82.2528 79.2763 83.4148 79.9679C84.8547 80.8254 86.3041 81.2597 87.7222 81.2597C89.0606 81.2597 90.2662 80.8129 91.3054 79.9325C92.1463 79.2196 92.884 78.2217 93.4972 76.9665C94.5511 74.8096 94.8391 72.8203 94.8421 72.7985L95.2569 72.9843C95.2439 73.0764 94.9796 74.9318 93.8973 77.1507C93.2576 78.4631 92.4827 79.5105 91.5946 80.2647C90.4727 81.2178 89.1697 81.7011 87.7222 81.7011Z" fill="white"/>
<path d="M103.801 172.131C106.509 172.131 108.704 169.936 108.704 167.229C108.704 164.521 106.509 162.326 103.801 162.326C101.093 162.326 98.8981 164.521 98.8981 167.229C98.8981 169.936 101.093 172.131 103.801 172.131Z" fill="#4A5EA3"/>
<path d="M78.1137 172.131C80.8214 172.131 83.0165 169.936 83.0165 167.229C83.0165 164.521 80.8214 162.326 78.1137 162.326C75.4059 162.326 73.2109 164.521 73.2109 167.229C73.2109 169.936 75.4059 172.131 78.1137 172.131Z" fill="#4A5EA3"/>
<path d="M71.6317 77.537C71.6317 79.2661 70.2302 80.6689 68.4999 80.6689C67.8053 80.6689 67.1638 80.4429 66.6445 80.0599C67.6206 78.2034 69.1319 76.6631 71.0015 75.6528C71.3974 76.1769 71.6317 76.8295 71.6317 77.537Z" fill="#FF78BA"/>
<path d="M89.9546 118.709L110.718 117.925C111.809 117.884 112.752 117.154 113.066 116.108L122.144 85.8467C122.337 85.204 121.84 84.562 121.17 84.5873L100.173 85.3805C99.222 85.4165 98.3994 86.0527 98.1261 86.9638L88.9809 117.45C88.7879 118.093 89.2842 118.735 89.9546 118.709Z" fill="#4A5EA3"/>
<path d="M112.331 102.815L115.963 106.449L116.583 104.384L112.331 102.815Z" fill="#2F3D6C"/>
<path d="M117.374 97.1878L112.14 97.533C111.753 97.5584 111.454 97.8818 111.458 98.2689L110.937 98.3014C110.599 98.3226 110.324 98.5823 110.285 98.9193L110.22 99.4633H110.218C109.831 99.468 109.52 99.7862 109.526 100.173C109.529 100.458 109.704 100.711 109.968 100.816L111.14 101.282C111.138 101.879 111.484 102.423 112.026 102.673L115.669 104.357C116.198 104.602 116.786 104.692 117.364 104.617C118.663 104.448 119.715 103.479 119.989 102.197L120.215 101.138C120.459 99.9957 120.106 98.8083 119.276 97.9868C118.769 97.4846 118.088 97.1984 117.374 97.1878Z" fill="#FCBEB7"/>
<path d="M91.3562 76.9989L94.9282 85.7304C95.1301 86.2231 95.4245 86.6693 95.7875 87.0311L96.423 87.6643C96.5706 87.8112 96.7765 87.7268 96.7789 87.5185L96.7883 86.6215C96.7936 86.1087 96.691 85.584 96.4897 85.0913L92.9177 76.3598C92.7005 75.8281 92.1747 75.5406 91.7433 75.7171C91.3119 75.8935 91.139 76.4678 91.3562 76.9989Z" fill="#6277D7"/>
<path d="M96.0531 82.2003L94.0921 79.4994C93.8395 79.1512 93.4482 78.9293 93.0198 78.8904L89.731 78.5923C89.2831 78.5516 88.8381 78.6956 88.4988 78.9907L86.7857 80.4795C86.5384 80.6943 86.3283 80.9486 86.1637 81.2319L84.0616 84.5673L64.1324 100.669C62.166 102.258 61.9925 105.193 63.757 107.002C65.5121 108.802 68.4309 108.714 70.075 106.813L86.9049 87.3468L90.4445 85.1704L93.057 85.2602C93.6642 85.2809 94.1989 84.8648 94.3281 84.2711L94.4715 84.1011C94.7188 83.8078 94.8191 83.4178 94.743 83.0419L94.5937 82.3048L95.4381 82.8501C95.5615 82.9298 95.7155 82.945 95.8518 82.8913C96.128 82.7827 96.2277 82.4411 96.0531 82.2003Z" fill="#FCBEB7"/>
<path d="M73.0923 103.323L80.4665 94.7938L73.3726 107.3L73.0923 103.323Z" fill="#FF78BA"/>
<path d="M89.9547 118.709L102.146 122.067L101.485 118.274L89.9547 118.709Z" fill="#2F3D6C"/>
<path d="M104.243 78.8053C103.857 78.9658 103.434 79.0543 102.991 79.0543C101.192 79.0543 99.7336 77.596 99.7336 75.7973C99.7336 75.5394 99.7637 75.2886 99.8204 75.0479C101.576 75.9378 103.089 77.2279 104.243 78.8053Z" fill="#FF78BA"/>
<path d="M66.9213 107.642C68.5942 107.642 69.9504 106.286 69.9504 104.613C69.9504 102.94 68.5942 101.584 66.9213 101.584C65.2483 101.584 63.8922 102.94 63.8922 104.613C63.8922 106.286 65.2483 107.642 66.9213 107.642Z" fill="#F9AFAB"/>
<path d="M182.426 56.0063C183.161 64.9355 189.648 70.5334 193.455 70.5334C194.026 70.5334 194.648 70.4313 195.297 70.2531V74.7069H204.953V63.3835C205.042 63.1492 205.129 62.8894 205.214 62.6121C209.495 62.2031 209.317 55.1287 206.774 55.1287C206.311 55.1287 206.002 55.566 205.807 56.0063L205.176 56.6377V53.4416C205.176 53.4416 203.755 53.5749 200.958 49.313C199.751 51.1442 190.126 54.0187 182.401 52.7316C182.401 52.731 182.381 54.3209 182.426 56.0063Z" fill="#FCBEB7"/>
<path d="M194.121 40.6115C200.78 40.6115 202.112 44.1629 202.112 44.1629C204.953 44.1629 209.304 49.3572 206.684 55.1281L206.67 55.1417L205.175 56.6377V53.4416C205.175 53.4416 203.754 53.5749 200.957 49.313C199.75 51.1442 190.124 54.0187 182.4 52.7316C182.4 52.7316 182.38 54.3214 182.424 56.0063C182.424 56.008 182.424 56.0098 182.424 56.0116C179.54 47.6654 185.331 40.6115 194.121 40.6115Z" fill="#311643"/>
<path d="M196.984 56.9782C197.279 56.9782 197.517 56.7397 197.517 56.4452V55.4503C197.517 55.1558 197.279 54.9175 196.984 54.9175C196.69 54.9175 196.451 55.1558 196.451 55.4503V56.4452C196.452 56.7397 196.69 56.9782 196.984 56.9782Z" fill="#311643"/>
<path d="M187.106 56.9782C187.401 56.9782 187.639 56.7397 187.639 56.4452V55.4503C187.639 55.1558 187.401 54.9175 187.106 54.9175C186.812 54.9175 186.574 55.1558 186.574 55.4503V56.4452C186.574 56.7397 186.813 56.9782 187.106 56.9782Z" fill="#311643"/>
<path d="M193.067 64.6623C194.018 64.6623 194.666 64.3047 195.058 63.979C195.553 63.5682 195.758 63.1203 195.767 63.1014C195.822 62.9787 195.767 62.8342 195.645 62.7787C195.522 62.7232 195.378 62.778 195.322 62.9001C195.294 62.9603 194.619 64.3768 192.657 64.1496C192.523 64.1342 192.402 64.2297 192.386 64.3642C192.37 64.4988 192.466 64.6192 192.6 64.6345C192.764 64.6534 192.919 64.6623 193.067 64.6623Z" fill="#311643"/>
<path d="M200.521 62.8606C201.976 62.8606 203.156 61.6811 203.156 60.2262C203.156 58.7713 201.976 57.5919 200.521 57.5919C199.067 57.5919 197.887 58.7713 197.887 60.2262C197.887 61.6811 199.067 62.8606 200.521 62.8606Z" fill="#F49795"/>
<path d="M182.699 58.0393C183.033 59.8085 183.593 61.4212 184.3 62.857C185.694 62.7886 186.801 61.6366 186.801 60.2262C186.801 58.7715 185.622 57.5925 184.168 57.5925C183.624 57.5925 183.119 57.7572 182.699 58.0393Z" fill="#F49795"/>
<path d="M183.374 55.9478C183.374 58.0062 185.049 59.6805 187.106 59.6805C189.118 59.6805 190.761 58.0817 190.836 56.0888C191.952 55.4568 192.946 55.9107 193.254 56.086C193.328 58.0806 194.972 59.681 196.983 59.681C199.042 59.681 200.716 58.0067 200.716 55.9484C200.716 53.89 199.041 52.2158 196.983 52.2158C195.061 52.2158 193.473 53.677 193.273 55.5471C192.785 55.3235 191.863 55.0567 190.817 55.5488C190.617 53.6781 189.029 52.2158 187.106 52.2158C185.049 52.2152 183.374 53.8894 183.374 55.9478ZM193.74 55.9478C193.74 54.1591 195.195 52.7034 196.985 52.7034C198.774 52.7034 200.229 54.1585 200.229 55.9478C200.229 57.7371 198.774 59.1923 196.985 59.1923C195.195 59.1923 193.74 57.7371 193.74 55.9478ZM183.862 55.9478C183.862 54.1591 185.317 52.7034 187.106 52.7034C188.896 52.7034 190.351 54.1585 190.351 55.9478C190.351 57.7371 188.896 59.1923 187.106 59.1923C185.318 59.1923 183.862 57.7371 183.862 55.9478Z" fill="white"/>
<path d="M195.297 74.7063V70.2525C197.481 69.6523 199.967 68.1824 201.835 66.7809L195.297 74.7063Z" fill="#F9AFAB"/>
<path d="M172.213 218.448H182.439L192.358 165.697L199.634 142.834L217.249 218.448H227.475L217.947 133.617H180.167L172.213 218.448Z" fill="#6277D7"/>
<path d="M181.627 222.56V229.787C181.627 230.63 180.944 231.312 180.101 231.312H159.604C159.409 231.312 159.251 231.154 159.251 230.96V229.568C159.251 228.96 159.599 228.405 160.146 228.141L171.704 222.56H181.627Z" fill="#2F3D6C"/>
<path d="M218.362 222.56V229.787C218.362 230.63 219.045 231.312 219.888 231.312H240.385C240.58 231.312 240.738 231.154 240.738 230.96V229.568C240.738 228.96 240.39 228.405 239.842 228.141L228.285 222.56H218.362Z" fill="#2F3D6C"/>
<path d="M182.439 218.449L181.669 222.56H171.704L172.213 218.449H182.439Z" fill="#FCBEB7"/>
<path d="M227.476 218.449L228.285 222.56H218.362L217.25 218.449H227.476Z" fill="#FCBEB7"/>
<path d="M218.151 135.436L179.793 137.603L180.167 133.617H217.947" fill="#4A5EA3"/>
<path d="M195.31 70.9065L180.694 77.2504C179.623 77.7112 178.71 78.4737 178.066 79.445L172.213 88.2638L180.466 95.5455L182.67 93.6625L180.168 133.618H217.948L215.633 107.565L216.146 93.6625L218.107 95.6163L226.825 88.9142L222.141 81.2803C220.982 79.3924 219.307 77.8747 217.315 76.9075L204.95 70.9059C204.949 70.9065 199.341 74.5859 195.31 70.9065Z" fill="#89AEFF"/>
<path d="M192.204 72.2543C194.253 73.9716 196.814 74.9057 199.519 74.9057C202.366 74.9057 205.055 73.8695 207.153 71.9764L206.772 71.7911C204.763 73.5532 202.215 74.5151 199.518 74.5151C196.972 74.5151 194.559 73.6577 192.606 72.0797L192.204 72.2543Z" fill="white"/>
<path d="M217.783 78.1538C217.783 79.9472 219.237 81.4007 221.03 81.4007C221.406 81.4007 221.766 81.3369 222.102 81.2195C221.065 79.5535 219.624 78.1797 217.918 77.2237C217.83 77.5182 217.783 77.8304 217.783 78.1538Z" fill="#4A62D3"/>
<path d="M177.198 80.7515C177.642 80.9787 178.145 81.1074 178.678 81.1074C180.471 81.1074 181.925 79.6533 181.925 77.8605C181.925 77.487 181.862 77.1275 181.746 76.7935L180.694 77.2504C179.623 77.7113 178.71 78.4743 178.066 79.4451L177.198 80.7515Z" fill="#4A62D3"/>
<path d="M215.82 172.253C218.524 172.253 220.716 170.061 220.716 167.358C220.716 164.654 218.524 162.463 215.82 162.463C213.117 162.463 210.925 164.654 210.925 167.358C210.925 170.061 213.117 172.253 215.82 172.253Z" fill="#4A5EA3"/>
<path d="M183.164 172.253C185.868 172.253 188.06 170.061 188.06 167.358C188.06 164.654 185.868 162.463 183.164 162.463C180.461 162.463 178.269 164.654 178.269 167.358C178.269 170.061 180.461 172.253 183.164 172.253Z" fill="#4A5EA3"/>
<path d="M130.469 78.7074L130.88 78.6389L130.943 78.3881C131.064 77.9154 131.474 77.5743 131.961 77.5412L137.711 77.153L141.712 75.5259L139.479 72.7388C139.109 72.2767 139.161 71.6075 139.597 71.208L144.309 74.8384C144.771 75.1948 145.155 75.6427 145.436 76.1538L146.91 78.8406L146.903 78.8502L168.447 93.908L172.214 88.2633L180.466 95.5449L170.136 104.68C169.524 105.208 168.613 105.199 168.012 104.657L143.762 82.8377L139.121 83.279C138.074 83.3787 137.017 83.2732 136.011 82.9692L133.547 82.2245C133.128 82.0982 132.91 81.6385 133.077 81.2343L131.322 80.8967C130.993 80.8336 130.746 80.5639 130.711 80.2317L130.681 79.9479H130.573C130.229 79.9479 129.949 79.6681 129.949 79.3234C129.947 79.0183 130.168 78.7575 130.469 78.7074Z" fill="#FCBEB7"/>
<path d="M209.55 130.568L213.392 128.853C213.658 128.734 213.865 128.512 213.964 128.239L214.521 126.705L212.579 127.181L211.96 128.511C211.752 128.958 211.226 129.159 210.772 128.964L211.58 126.523C211.731 126.135 212.023 125.817 212.397 125.633L216.454 123.638L223.453 100.936L218.106 95.6162L226.824 88.9142L231.921 97.7856C232.622 99.0054 232.708 100.484 232.152 101.775L218.004 134.129L215.197 134.259C214.859 134.274 214.54 134.103 214.367 133.814L214.061 133.303L212.584 133.424C212.267 133.45 211.96 133.311 211.77 133.055L211.423 132.586L211.216 132.641C210.65 132.79 210.055 132.532 209.779 132.016L208.753 132.358C208.521 131.646 208.865 130.874 209.55 130.568Z" fill="#FCBEB7"/>
<path d="M228.944 99.8375C228.944 101.436 230.086 102.769 231.6 103.062L232.153 101.775C232.709 100.484 232.623 99.0048 231.922 97.7856L231.291 96.688C229.934 97.0917 228.944 98.3492 228.944 99.8375Z" fill="#F9AFAB"/>
<path d="M165.681 102.559L168.01 104.658C168.612 105.2 169.522 105.209 170.135 104.68L172.418 102.709C171.759 101.502 170.478 100.683 169.006 100.683C167.596 100.683 166.361 101.434 165.681 102.559Z" fill="#F9AFAB"/>
</svg>
