<svg width="265" height="231" viewBox="0 0 265 231" fill="none" xmlns="http://www.w3.org/2000/svg">
<path d="M84.8158 183.932L79.1386 231H77.2769L82.9541 183.932H84.8158Z" fill="#D2DCFF"/>
<path d="M59.7267 183.931L59.0882 189.225L54.0495 230.999H52.1873L57.2514 189.018L57.8644 183.931H59.7267Z" fill="#D2DCFF"/>
<path d="M84.8158 230.999H82.9541L82.1687 224.49L81.2381 216.772L78.1753 191.384L77.2769 183.931H79.1392L80.0637 191.596L82.1687 209.052L83.0998 216.77L84.8158 230.999Z" fill="#D2DCFF"/>
<path d="M109.905 230.999H108.043L103.636 194.466L102.365 183.931H104.228L105.523 194.67L109.905 230.999Z" fill="#D2DCFF"/>
<path d="M59.8176 152.467H57.9553V180.939H59.8176V152.467Z" fill="#D2DCFF"/>
<path d="M85.1195 152.467H83.2578V180.939H85.1195V152.467Z" fill="#D2DCFF"/>
<path d="M105.009 180.939H79.4257C80.2521 180.939 80.9222 181.608 80.9222 182.435C80.9222 183.261 80.2521 183.931 79.4257 183.931H105.009C105.836 183.931 106.506 183.261 106.506 182.435C106.506 181.608 105.836 180.939 105.009 180.939Z" fill="#D2DCFF"/>
<path d="M80.9222 182.435C80.9222 181.608 80.2521 180.939 79.4257 180.939H59.857H57.3362C56.5098 180.939 55.8398 181.608 55.8398 182.435C55.8398 183.261 56.5098 183.931 57.3362 183.931H59.857H79.4257C80.2521 183.931 80.9222 183.261 80.9222 182.435Z" fill="#86A2E2"/>
<path d="M86.6414 131.04H56.4344C55.2827 131.04 54.3488 131.974 54.3488 133.126V150.381C54.3488 151.533 55.2827 152.467 56.4344 152.467H86.6414C87.7931 152.467 88.727 151.533 88.727 150.381V133.126C88.7265 131.974 87.7931 131.04 86.6414 131.04Z" fill="#D2DCFF"/>
<path d="M59.7267 183.931L59.0882 189.225C58.4153 189.149 57.8007 189.08 57.2514 189.018L57.865 183.931H59.7267Z" fill="#AEC3FF"/>
<path d="M79.1392 183.931L80.0637 191.596C79.4313 191.525 78.8017 191.454 78.1759 191.384L77.2769 183.931H79.1392Z" fill="#AEC3FF"/>
<path d="M105.523 194.67C104.922 194.605 104.292 194.538 103.636 194.466H103.636L102.365 183.931H104.228L105.523 194.67Z" fill="#AEC3FF"/>
<path d="M57.9553 152.467H59.8176V156.4L57.9553 156.193V152.467Z" fill="#AEC3FF"/>
<path d="M85.1195 152.467V159.2L83.2578 158.994V152.467H85.1195Z" fill="#AEC3FF"/>
<path d="M95.2256 104.853C87.9705 106.062 78.9308 103.362 77.7973 101.643C75.1708 105.645 73.8361 105.52 73.8361 105.52V108.522L73.2431 107.929C73.0602 107.515 72.7698 107.105 72.3352 107.105C69.9464 107.105 69.7796 113.749 73.8001 114.133C73.8794 114.394 73.9614 114.637 74.0451 114.857V125.492H83.1137V121.309C83.7234 121.476 84.3075 121.572 84.844 121.572C88.4195 121.572 94.5123 116.315 95.2029 107.928C95.2439 106.346 95.2256 104.853 95.2256 104.853Z" fill="#FCBEB7"/>
<path d="M84.2183 93.4703C77.9642 93.4703 76.7132 96.8058 76.7132 96.8058C74.0445 96.8058 69.9586 101.684 72.4189 107.104L72.4317 107.117L73.8367 108.522V105.52C73.8367 105.52 75.1708 105.645 77.7979 101.643C78.9313 103.362 87.9716 106.062 95.2262 104.853C95.2262 104.853 95.245 106.346 95.2034 107.928C95.2034 107.93 95.2034 107.932 95.2034 107.933C97.9126 100.095 92.4738 93.4703 84.2183 93.4703Z" fill="#311643"/>
<path d="M81.5291 110.218C81.2525 110.218 81.0286 109.994 81.0286 109.718V108.783C81.0286 108.506 81.2525 108.283 81.5291 108.283C81.8057 108.283 82.0296 108.506 82.0296 108.783V109.718C82.0291 109.994 81.8051 110.218 81.5291 110.218Z" fill="#311643"/>
<path d="M90.8061 110.218C90.5295 110.218 90.3056 109.994 90.3056 109.718V108.783C90.3056 108.506 90.5295 108.283 90.8061 108.283C91.0826 108.283 91.3066 108.506 91.3066 108.783V109.718C91.306 109.994 91.0821 110.218 90.8061 110.218Z" fill="#311643"/>
<path d="M85.2076 116.058C84.3147 116.058 83.7067 115.722 83.3381 115.416C82.8737 115.031 82.6808 114.61 82.6725 114.592C82.6204 114.477 82.6719 114.341 82.7872 114.289C82.9025 114.237 83.0377 114.288 83.0898 114.403C83.1159 114.46 83.7499 115.79 85.5928 115.577C85.7186 115.562 85.8322 115.652 85.8466 115.778C85.8611 115.904 85.7713 116.018 85.6455 116.032C85.4931 116.05 85.3467 116.058 85.2076 116.058Z" fill="#311643"/>
<path d="M78.2069 114.367C79.5734 114.367 80.6811 113.259 80.6811 111.892C80.6811 110.526 79.5734 109.418 78.2069 109.418C76.8405 109.418 75.7328 110.526 75.7328 111.892C75.7328 113.259 76.8405 114.367 78.2069 114.367Z" fill="#F49795"/>
<path d="M94.9452 109.838C94.6314 111.5 94.106 113.015 93.4415 114.363C92.1329 114.298 91.0926 113.217 91.0926 111.892C91.0926 110.526 92.2 109.419 93.5662 109.419C94.0767 109.419 94.5511 109.573 94.9452 109.838Z" fill="#F49795"/>
<path d="M90.806 104.369C88.9997 104.369 87.5082 105.742 87.3204 107.499C86.3382 107.037 85.4714 107.287 85.0142 107.497C84.8257 105.741 83.3348 104.369 81.5291 104.369C79.5958 104.369 78.0234 105.941 78.0234 107.874C78.0234 109.807 79.5964 111.38 81.5291 111.38C83.4185 111.38 84.9631 109.877 85.0313 108.004C85.3217 107.839 86.2545 107.413 87.3032 108.007C87.373 109.878 88.9172 111.38 90.8055 111.38C92.7387 111.38 94.3111 109.807 94.3111 107.874C94.3116 105.941 92.7387 104.369 90.806 104.369ZM81.5291 110.921C79.8486 110.921 78.4818 109.555 78.4818 107.874C78.4818 106.194 79.8486 104.827 81.5291 104.827C83.209 104.827 84.5763 106.194 84.5763 107.874C84.5757 109.555 83.209 110.921 81.5291 110.921ZM90.806 110.921C89.1255 110.921 87.7588 109.555 87.7588 107.874C87.7588 106.194 89.1255 104.827 90.806 104.827C92.4865 104.827 93.8533 106.194 93.8533 107.874C93.8533 109.555 92.4859 110.921 90.806 110.921Z" fill="white"/>
<path d="M83.1131 125.492V121.309C81.0624 120.745 78.7279 119.365 76.9731 118.048L83.1131 125.492Z" fill="#F9AFAB"/>
<path d="M108.879 196.995L106.986 196.736L105.193 181.87H107.055L108.879 196.995Z" fill="#EBEDF4"/>
<path d="M103.85 140.185L105.495 143.338H96.7299L103.85 140.185Z" fill="#FCBEB7"/>
<path d="M87.0621 222.779V229.567C87.0621 230.358 87.7039 231 88.4954 231H107.747C107.929 231 108.078 230.851 108.078 230.669V229.418C108.078 228.814 107.726 228.265 107.177 228.014L96.0459 222.779H87.0621Z" fill="#2F3D6C"/>
<path d="M87.0621 218.918L87.0665 222.779H96.0453L96.6666 218.918H87.0621Z" fill="#FCBEB7"/>
<path d="M83.0976 121.547L95.2871 127.053C96.9632 127.81 98.3272 129.122 99.1485 130.768L103.85 140.186L96.7298 143.338L97.3195 164.156H61.8367L63.3858 144.713L56.9688 144.755V134.117C56.9688 130.822 58.9485 127.85 61.9891 126.58L74.0445 121.547C74.0451 121.547 79.3115 125.004 83.0976 121.547Z" fill="#89AEFF"/>
<path d="M85.6366 122.649C83.8026 124.132 81.5357 124.937 79.1447 124.937C76.6124 124.937 74.1371 123.951 72.2504 122.296L71.8625 122.458C73.8334 124.236 76.4699 125.303 79.1447 125.303C81.6848 125.303 84.0903 124.425 86.0146 122.813L85.6366 122.649Z" fill="white"/>
<path d="M105.954 222.779V229.567C105.954 230.358 106.596 231 107.387 231H126.639C126.822 231 126.97 230.851 126.97 230.669V229.418C126.97 228.814 126.618 228.265 126.069 228.014L114.938 222.779H105.954Z" fill="#2F3D6C"/>
<path d="M105.954 218.918L105.959 222.779H114.938L115.559 218.918H105.954Z" fill="#FCBEB7"/>
<path d="M80.7277 164.156V164.519C80.7205 173.637 88.1102 181.032 97.2287 181.032H104.894L105.955 218.917H115.559L122.641 173.745C123.431 168.708 119.536 164.156 114.437 164.156H80.7277Z" fill="#6277D7"/>
<path d="M122.742 172.479C121.915 173.689 120.524 174.483 118.947 174.483C116.408 174.483 114.35 172.426 114.35 169.887C114.35 167.448 116.248 165.454 118.647 165.3C121.124 166.759 122.756 169.464 122.742 172.479Z" fill="#4A5EA3"/>
<path d="M103.849 172.302L104.894 181.032H98.6049L103.849 172.302Z" fill="#4A5EA3"/>
<path d="M61.8356 164.156V164.519C61.8284 173.637 69.2181 181.032 78.3366 181.032H86.0018L87.0627 218.917H96.6672L103.749 173.745C104.539 168.708 100.644 164.156 95.5454 164.156H61.8356Z" fill="#6277D7"/>
<path d="M56.9693 144.755L57.3107 156.545C57.4033 159.732 60.0127 162.267 63.2007 162.267H83.725L85.1029 157.467L66.9989 154.483L66.8709 144.69L56.9693 144.755Z" fill="#FCBEB7"/>
<path d="M63.0555 159.815C63.0555 160.747 62.6365 161.582 61.9764 162.14C59.8547 161.691 58.1498 160.101 57.5452 158.033C58.0977 157.269 58.9967 156.772 60.0121 156.772C61.6937 156.772 63.0555 158.134 63.0555 159.815Z" fill="#F9AFAB"/>
<path d="M66.8709 144.691L69.6505 154.92L66.999 154.483L66.8709 144.691Z" fill="#4A62D3"/>
<path d="M82.5733 157.05L79.3376 162.267H83.7245L85.1029 157.467L82.5733 157.05Z" fill="#F9AFAB"/>
<path d="M117.842 143.338H91.0793C89.942 143.338 88.9421 144.091 88.6284 145.184L83.7244 162.267H72.8723C72.3507 162.267 71.9279 162.69 71.9279 163.212C71.9279 163.733 72.3507 164.156 72.8723 164.156H83.1824H86.4608H115.251L120.292 146.592C120.761 144.962 119.537 143.338 117.842 143.338Z" fill="#4A5EA3"/>
<path d="M103.849 172.302C103.039 173.611 101.591 174.483 99.9378 174.483C97.3988 174.483 95.3409 172.425 95.3409 169.886C95.3409 167.412 97.2951 165.394 99.7449 165.293C102.179 166.724 103.799 169.354 103.849 172.302Z" fill="#4A5EA3"/>
<path d="M104.236 154.538C104.307 153.74 103.92 153.054 103.374 153.006C102.827 152.958 102.328 153.566 102.257 154.364C102.187 155.162 102.573 155.847 103.12 155.895C103.666 155.943 104.166 155.336 104.236 154.538Z" fill="#89AEFF"/>
<path d="M62.3528 130.91C62.3528 132.397 61.1473 133.602 59.6608 133.602C58.5883 133.602 57.6633 132.975 57.2304 132.069C57.6106 130.599 58.3938 129.269 59.4812 128.225C59.5405 128.221 59.6004 128.219 59.6608 128.219C61.1473 128.218 62.3528 129.424 62.3528 130.91Z" fill="#4A62D3"/>
<path d="M98.9823 130.452C98.5533 130.741 98.0368 130.91 97.4809 130.91C95.9944 130.91 94.7894 129.704 94.7894 128.218C94.7894 127.766 94.9003 127.34 95.097 126.967L95.2871 127.053C96.8546 127.761 98.1493 128.954 98.9823 130.452Z" fill="#4A62D3"/>
<path d="M157.928 67.6774L157.837 83.6863L165.997 83.7328L173.503 83.7756L174.021 83.7783L184.186 83.8359C184.186 83.8359 184.255 71.5427 184.296 64.3974C184.34 56.7105 178.162 55.3388 178.162 55.3388C178.162 55.3388 175.933 51.7146 169.389 51.6774C161.514 51.6325 156.235 56.4268 156.202 62.3811C156.187 65.1157 157.288 66.8826 157.928 67.6774ZM158.076 65.0214C159.073 64.8025 161.887 62.3517 161.902 59.8221C164.073 63.4596 170.741 68.7144 180.718 65.5873V65.5879C180.749 65.5834 180.78 65.5807 180.813 65.5812C183.182 65.5945 183.31 72.1851 179.32 72.5431C179.261 72.736 179.199 72.9195 179.136 73.0913L179.075 83.8071L170.082 83.7555L170.105 79.5904C169.478 79.7634 168.876 79.8619 168.326 79.8586C164.606 79.8381 158.172 74.0623 158.076 65.0214Z" fill="#311643"/>
<path d="M170.102 80.1645L170.106 79.5909C169.478 79.7639 168.876 79.8624 168.326 79.8591C164.606 79.8381 158.172 74.0623 158.076 65.0214C159.073 64.8025 161.887 62.3517 161.902 59.8221C164.073 63.4596 170.741 68.7143 180.718 65.5873V65.5878C180.749 65.5834 180.78 65.5806 180.813 65.5812C183.182 65.5945 183.31 72.1851 179.32 72.5431C179.261 72.736 179.199 72.9194 179.136 73.0913L179.095 80.2998L186.12 83.6602L186.071 92.3542L162.664 92.2205L162.714 83.4445L170.102 80.1645Z" fill="#FCBEB7"/>
<path d="M162.664 92.2205L162.714 83.4445L170.102 80.1645L170.106 79.5909C172.193 79.0145 174.57 77.6039 176.317 76.2848L162.664 92.2205Z" fill="#F9AFAB"/>
<path d="M174.962 72.7504C176.317 72.7504 177.416 71.6518 177.416 70.2967C177.416 68.9416 176.317 67.8431 174.962 67.8431C173.607 67.8431 172.508 68.9416 172.508 70.2967C172.508 71.6518 173.607 72.7504 174.962 72.7504Z" fill="#F49795"/>
<path d="M158.374 68.1652C158.675 69.8147 159.188 71.32 159.839 72.6613C161.137 72.6048 162.175 71.5377 162.183 70.2242C162.19 68.869 161.098 67.7645 159.743 67.7567C159.238 67.7534 158.766 67.9042 158.374 68.1652Z" fill="#F49795"/>
<path d="M159.058 66.2209C159.047 68.138 160.598 69.7066 162.515 69.7177C164.388 69.7282 165.928 68.2478 166.008 66.3922C167.058 65.8047 167.973 66.2331 168.261 66.401C168.318 68.2594 169.841 69.7593 171.716 69.7698C173.633 69.7809 175.201 68.2301 175.212 66.3129C175.223 64.3958 173.673 62.8272 171.756 62.8161C169.965 62.8062 168.478 64.1585 168.281 65.8994C167.829 65.6882 166.971 65.4355 165.994 65.8883C165.818 64.1446 164.346 62.774 162.555 62.764C160.638 62.753 159.069 64.3038 159.058 66.2209ZM168.713 66.2758C168.723 64.6098 170.086 63.2618 171.753 63.2712C173.419 63.2806 174.767 64.644 174.757 66.3101C174.748 67.9761 173.384 69.3241 171.718 69.3147C170.051 69.3053 168.704 67.9419 168.713 66.2758ZM159.513 66.2231C159.523 64.5565 160.886 63.2091 162.553 63.2186C164.219 63.228 165.567 64.5914 165.557 66.2574C165.548 67.9241 164.185 69.2715 162.518 69.2621C160.851 69.2532 159.503 67.8897 159.513 66.2231Z" fill="white"/>
<path d="M162.519 68.7316C162.792 68.7332 163.016 68.512 163.017 68.2382L163.023 67.3116C163.025 67.0378 162.803 66.8145 162.53 66.8128C162.256 66.8112 162.032 67.0322 162.031 67.306L162.025 68.2333C162.024 68.5071 162.245 68.7305 162.519 68.7316Z" fill="#311643"/>
<path d="M171.571 68.7837C171.844 68.7854 172.068 68.5643 172.069 68.2905L172.075 67.3632C172.076 67.0894 171.855 66.8659 171.582 66.8643C171.308 66.8626 171.084 67.0838 171.083 67.3576L171.077 68.2843C171.076 68.5586 171.296 68.782 171.571 68.7837Z" fill="#311643"/>
<path d="M167.996 74.3882C168.882 74.3932 169.486 74.0633 169.854 73.7624C170.317 73.3827 170.511 72.9665 170.518 72.9487C170.571 72.8345 170.521 72.6993 170.406 72.6472C170.292 72.5951 170.158 72.645 170.105 72.7586C170.079 72.8146 169.442 74.1299 167.616 73.9082C167.492 73.8933 167.379 73.9819 167.363 74.1066C167.348 74.2313 167.437 74.3444 167.562 74.3599C167.713 74.3788 167.858 74.3876 167.996 74.3882Z" fill="#311643"/>
<path d="M152.299 218.636L151.346 222.498L141.179 225.628L142.679 218.581L152.299 218.636Z" fill="#FCBEB7"/>
<path d="M186.492 218.831L186.188 223.607L186.819 223.844L187.225 225.892L177.103 222.645L176.872 218.776L186.492 218.831Z" fill="#FCBEB7"/>
<path d="M133.343 227.085L141.614 223.586L141.179 225.628L151.346 222.498L151.33 225.406C151.324 226.429 150.784 227.353 149.94 227.869L149.054 230.359C148.977 230.574 148.773 230.718 148.544 230.716C148.247 230.715 148.008 230.472 148.01 230.176L148.019 228.553L141.071 230.674L134.054 230.634C133.034 230.629 132.211 229.797 132.217 228.776C132.22 228.037 132.663 227.373 133.343 227.085Z" fill="#2F3D6C"/>
<path d="M177.078 225.525L177.103 222.617L187.224 225.892L186.819 223.844L195.038 227.462C195.714 227.76 196.148 228.431 196.141 229.169C196.132 230.189 195.298 231.009 194.278 231L187.261 230.94L180.101 228.641L180.086 230.34C180.084 230.637 179.841 230.876 179.544 230.873C179.316 230.871 179.114 230.725 179.04 230.508L178.109 227.771C177.463 227.224 177.07 226.409 177.078 225.525Z" fill="#2F3D6C"/>
<path d="M185.512 121.542L189.165 137.415C190.22 142 190.619 146.71 190.35 151.406L186.492 218.831L176.872 218.776L173.164 148.757L152.299 218.636L142.679 218.581L160.171 121.398L185.512 121.542Z" fill="#6277D7"/>
<path d="M172.974 87.9916C171.266 87.9817 169.909 86.3294 168.997 84.6578L178.738 84.7133C177.244 86.366 175.199 88.0038 172.974 87.9916Z" fill="white"/>
<path d="M156.178 89.222C157.4 86.8127 159.418 84.9 161.889 83.8087L167.685 81.2487C167.683 81.5202 168.146 83.097 168.997 84.6578C169.909 86.3294 171.266 87.9817 172.974 87.9916C175.199 88.0044 177.244 86.3666 178.738 84.7132C180.255 83.0355 181.207 81.3428 181.207 81.3428L187.896 84.4888C190.634 85.7763 192.641 88.2349 193.355 91.1752L197.185 106.961C197.809 109.535 197.058 112.249 195.198 114.135C192.117 113.035 186.335 110.746 186.335 110.746L185.512 121.543L160.171 121.399L154.035 93.4471L156.178 89.222Z" fill="#FE9ECC"/>
<path d="M172.711 90.3599C174.119 90.3677 175.555 89.9476 176.979 89.1101C178.109 88.4456 179.233 87.5177 180.322 86.3527C182.17 84.3752 183.299 82.3528 183.31 82.3323L182.935 82.1554C182.924 82.1754 181.828 84.1357 180.013 86.0767C178.952 87.2112 177.859 88.1124 176.764 88.7559C175.407 89.5535 174.044 89.9537 172.712 89.9465C171.455 89.9393 170.325 89.5136 169.354 88.6805C168.568 88.0066 167.881 87.0655 167.312 85.8833C166.333 83.852 166.073 81.9819 166.071 81.9614L165.68 82.1338C165.692 82.2202 165.931 83.9644 166.935 86.0539C167.529 87.2899 168.251 88.2782 169.081 88.9909C170.13 89.8916 171.351 90.3521 172.711 90.3599Z" fill="white"/>
<path d="M157.152 175.205C159.695 175.205 161.757 173.143 161.757 170.6C161.757 168.057 159.695 165.995 157.152 165.995C154.609 165.995 152.548 168.057 152.548 170.6C152.548 173.143 154.609 175.205 157.152 175.205Z" fill="#4A5EA3"/>
<path d="M181.277 175.342C183.82 175.342 185.882 173.28 185.882 170.737C185.882 168.194 183.82 166.133 181.277 166.133C178.734 166.133 176.672 168.194 176.672 170.737C176.672 173.28 178.734 175.342 181.277 175.342Z" fill="#4A5EA3"/>
<path d="M187.845 86.5351C187.835 88.1591 189.144 89.4837 190.769 89.4931C191.421 89.497 192.025 89.2881 192.515 88.9311C191.608 87.1825 190.197 85.7276 188.447 84.7687C188.072 85.2592 187.849 85.8711 187.845 86.5351Z" fill="#FF78BA"/>
<path d="M170.416 125.105L150.92 124.258C149.895 124.213 149.012 123.522 148.724 122.538L140.36 94.069C140.182 93.4643 140.652 92.864 141.282 92.8917L160.998 93.7491C161.89 93.7879 162.66 94.3899 162.911 95.2473L171.337 123.928C171.515 124.532 171.045 125.133 170.416 125.105Z" fill="#4A5EA3"/>
<path d="M149.486 110.058L146.055 113.452L145.484 111.509L149.486 110.058Z" fill="#2F3D6C"/>
<path d="M144.779 104.747L149.693 105.099C150.056 105.125 150.335 105.43 150.329 105.793L150.817 105.827C151.135 105.848 151.391 106.094 151.427 106.41L151.485 106.922H151.487C151.851 106.929 152.14 107.229 152.134 107.593C152.129 107.859 151.964 108.097 151.715 108.194L150.612 108.626C150.611 109.187 150.283 109.695 149.772 109.928L146.342 111.489C145.844 111.717 145.291 111.798 144.749 111.725C143.529 111.559 142.547 110.643 142.296 109.438L142.089 108.442C141.867 107.368 142.205 106.255 142.988 105.488C143.467 105.017 144.109 104.752 144.779 104.747Z" fill="#FCBEB7"/>
<path d="M169.323 85.9243L165.921 94.1056C165.729 94.5673 165.45 94.9846 165.107 95.3227L164.506 95.914C164.367 96.0515 164.174 95.9711 164.173 95.7755L164.169 94.933C164.167 94.4514 164.266 93.9593 164.458 93.4976L167.86 85.3164C168.067 84.8187 168.562 84.5509 168.966 84.7188C169.37 84.8868 169.53 85.4266 169.323 85.9243Z" fill="#6277D7"/>
<path d="M164.884 90.7845L166.74 88.2582C166.98 87.9323 167.348 87.7261 167.75 87.6917L170.841 87.4296C171.262 87.3942 171.679 87.5316 171.996 87.8104L173.597 89.2181C173.828 89.4215 174.025 89.6615 174.177 89.9281L176.133 93.0724L194.765 108.301C196.602 109.804 196.75 112.561 195.083 114.252C193.425 115.933 190.684 115.835 189.151 114.04L173.449 95.668L170.136 93.605L167.682 93.6753C167.111 93.6919 166.611 93.2979 166.493 92.7398L166.359 92.5791C166.129 92.3026 166.037 91.9356 166.11 91.5825L166.255 90.8908L165.459 91.3985C165.342 91.4728 165.198 91.486 165.07 91.4351C164.81 91.3309 164.718 91.01 164.884 90.7845Z" fill="#FCBEB7"/>
<path d="M186.335 110.746L179.455 102.695L186.051 114.479L186.335 110.746Z" fill="#FF78BA"/>
<path d="M170.416 125.105L158.948 128.193L159.589 124.635L170.416 125.105Z" fill="#2F3D6C"/>
<path d="M157.21 87.5521C157.572 87.7051 157.968 87.7903 158.385 87.7926C160.074 87.802 161.452 86.4408 161.461 84.7515C161.463 84.5093 161.435 84.2732 161.384 84.0471C159.731 84.8734 158.302 86.0767 157.21 87.5521Z" fill="#FF78BA"/>
<path d="M192.123 114.834C193.695 114.834 194.968 113.561 194.968 111.989C194.968 110.418 193.695 109.144 192.123 109.144C190.552 109.144 189.279 110.418 189.279 111.989C189.279 113.561 190.552 114.834 192.123 114.834Z" fill="#F9AFAB"/>
<path d="M227.369 123.587H224.344V227.974H227.369V123.587Z" fill="#D2DCFF"/>
<path d="M247.967 231H203.746C202.934 231 202.276 230.342 202.276 229.53V229.445C202.276 228.633 202.934 227.975 203.746 227.975H247.967C248.779 227.975 249.437 228.633 249.437 229.445V229.53C249.437 230.342 248.778 231 247.967 231Z" fill="#D2DCFF"/>
<path d="M254.312 123.587H197.401L207.248 92.2593H244.465L254.312 123.587Z" fill="#D2DCFF"/>
<path d="M227.369 123.587V141.699C226.347 142.046 225.334 142.39 224.344 142.727V123.586H227.369V123.587Z" fill="#AEC3FF"/>
<path d="M200.889 112.489L250.831 112.513L251.554 114.814H200.158L200.889 112.489Z" fill="#AEC3FF"/>
<path d="M261.12 222.13V220.107C261.12 219.481 260.613 218.974 259.987 218.974H213.047C210.679 218.974 208.759 220.894 208.759 223.263V226.712C208.759 229.08 210.679 231 213.047 231H259.987C260.613 231 261.12 230.493 261.12 229.868V227.845C261.12 227.219 260.613 226.712 259.987 226.712H214.772C213.819 226.712 213.047 225.94 213.047 224.988C213.047 224.035 213.819 223.263 214.772 223.263H259.987C260.613 223.263 261.12 222.756 261.12 222.13Z" fill="#86A2E2"/>
<path d="M260.664 186.053V184.03C260.664 183.404 260.157 182.897 259.531 182.897H212.592C210.223 182.897 208.303 184.817 208.303 187.185V190.634C208.303 193.002 210.223 194.922 212.592 194.922H259.531C260.157 194.922 260.664 194.415 260.664 193.79V191.767C260.664 191.141 260.157 190.635 259.531 190.635H214.316C213.364 190.635 212.592 189.863 212.592 188.91C212.592 187.957 213.364 187.185 214.316 187.185H259.531C260.157 187.185 260.664 186.679 260.664 186.053Z" fill="#D2DCFF"/>
<path d="M257.766 210.104V208.081C257.766 207.456 257.259 206.949 256.633 206.949H216.401C214.033 206.949 212.113 208.869 212.113 211.237V214.686C212.113 217.055 214.033 218.974 216.401 218.974H256.633C257.259 218.974 257.766 218.467 257.766 217.842V215.819C257.766 215.193 257.259 214.686 256.633 214.686H218.126C217.173 214.686 216.401 213.914 216.401 212.962C216.401 212.009 217.173 211.237 218.126 211.237H256.633C257.259 211.237 257.766 210.73 257.766 210.104Z" fill="#AEC3FF"/>
<path d="M264.523 174.354V172.331C264.523 171.705 264.016 171.198 263.391 171.198H223.159C220.791 171.198 218.871 173.118 218.871 175.487V178.936C218.871 181.304 220.791 183.224 223.159 183.224H263.391C264.017 183.224 264.523 182.717 264.523 182.092V180.069C264.523 179.443 264.016 178.936 263.391 178.936H224.884C223.931 178.936 223.159 178.164 223.159 177.211C223.159 176.258 223.931 175.486 224.884 175.486H263.391C264.016 175.487 264.523 174.98 264.523 174.354Z" fill="#AEC3FF"/>
<path d="M256.275 211.237V214.686H218.126C217.173 214.686 216.401 213.914 216.401 212.961C216.401 212.008 217.173 211.236 218.126 211.236H256.275V211.237Z" fill="#EFF1FA"/>
<path d="M252.905 223.263V226.712H214.757C213.804 226.712 213.032 225.94 213.032 224.987C213.032 224.034 213.804 223.262 214.757 223.262H252.905V223.263Z" fill="#EFF1FA"/>
<path d="M252.45 187.185V190.634H214.301C213.348 190.634 212.576 189.862 212.576 188.909C212.576 187.957 213.348 187.185 214.301 187.185H252.45V187.185Z" fill="#EFF1FA"/>
<path d="M263.032 175.487V178.936H224.883C223.93 178.936 223.158 178.164 223.158 177.211C223.158 176.258 223.93 175.486 224.883 175.486H263.032V175.487Z" fill="#EFF1FA"/>
<path d="M264.523 198.078V196.055C264.523 195.429 264.016 194.923 263.391 194.923H223.159C220.791 194.923 218.871 196.843 218.871 199.211V202.66C218.871 205.028 220.791 206.948 223.159 206.948H263.391C264.017 206.948 264.523 206.441 264.523 205.816V203.793C264.523 203.168 264.016 202.661 263.391 202.661H224.884C223.931 202.661 223.159 201.889 223.159 200.936C223.159 199.983 223.931 199.211 224.884 199.211H263.391C264.016 199.211 264.523 198.704 264.523 198.078Z" fill="#86A2E2"/>
<path d="M263.032 199.211V202.66H224.883C223.93 202.66 223.158 201.888 223.158 200.935C223.158 199.983 223.93 199.211 224.883 199.211H263.032V199.211Z" fill="#EFF1FA"/>
<path d="M243.068 165.177H249.979C250.32 165.177 250.585 165.475 250.544 165.813L249.959 170.697C249.925 170.983 249.683 171.198 249.395 171.198H243.653C243.365 171.198 243.122 170.983 243.088 170.697L242.503 165.813C242.463 165.475 242.727 165.177 243.068 165.177Z" fill="#D2DCFF"/>
<path d="M248.896 163.185V160.964L247.567 163.488V159.388L246.524 161.97L245.48 159.388V163.488L244.151 160.964V163.185L242.215 160.071L243.068 165.177H246.524H249.979L250.832 160.071L248.896 163.185Z" fill="#FE9ECC"/>
<path d="M137.928 57.3386V80.1751C137.928 80.981 137.275 81.6345 136.469 81.6345H109.016C108.209 81.6345 107.557 80.981 107.557 80.1751V57.3386C107.557 56.5321 108.209 55.8792 109.016 55.8792H136.469C137.274 55.8792 137.928 56.5327 137.928 57.3386Z" fill="#FFD9E8"/>
<path d="M137.928 57.3386V61.6433H107.557V57.3386C107.557 56.5321 108.209 55.8792 109.016 55.8792H136.469C137.275 55.8792 137.928 56.5327 137.928 57.3386Z" fill="#FE9ECC"/>
<path d="M115.787 57.707C115.371 57.707 115.034 57.3701 115.034 56.9538V54.8051C115.034 54.3888 115.371 54.0518 115.787 54.0518C116.203 54.0518 116.54 54.3888 116.54 54.8051V56.9538C116.54 57.3701 116.203 57.707 115.787 57.707Z" fill="#FE9ECC"/>
<path d="M129.697 57.707C129.281 57.707 128.944 57.3701 128.944 56.9538V54.8051C128.944 54.3888 129.281 54.0518 129.697 54.0518C130.113 54.0518 130.45 54.3888 130.45 54.8051V56.9538C130.45 57.3701 130.113 57.707 129.697 57.707Z" fill="#FE9ECC"/>
<path d="M116.229 72.2792L119.471 69.3672C119.636 69.2182 119.801 69.0491 119.966 68.8601C120.131 68.6716 120.214 68.4517 120.214 68.2C120.214 67.9174 120.111 67.695 119.907 67.5337C119.703 67.3725 119.463 67.2922 119.188 67.2922C118.858 67.2922 118.601 67.3942 118.416 67.5987C118.232 67.8032 118.128 68.0547 118.104 68.3529L116.336 68.2233C116.36 67.791 116.449 67.4158 116.607 67.0976C116.764 66.7795 116.972 66.514 117.231 66.3017C117.491 66.0894 117.795 65.9303 118.145 65.8239C118.495 65.718 118.874 65.6649 119.282 65.6649C119.66 65.6649 120.013 65.718 120.343 65.8239C120.673 65.9303 120.96 66.0872 121.204 66.2956C121.447 66.504 121.638 66.7651 121.776 67.0799C121.913 67.3942 121.982 67.76 121.982 68.1762C121.982 68.4434 121.954 68.6849 121.899 68.9011C121.844 69.1172 121.767 69.3134 121.669 69.4902C121.571 69.6671 121.455 69.8306 121.322 69.9797C121.188 70.1288 121.042 70.274 120.886 70.4159L118.351 72.5968H122.052V74.1526H116.229V72.2792H116.229Z" fill="#FE9ECC"/>
<path d="M126.226 71.1714C126.132 71.1952 126.037 71.2146 125.943 71.2301C125.849 71.2462 125.75 71.2534 125.648 71.2534C125.255 71.2534 124.898 71.183 124.576 71.0411C124.253 70.8998 123.978 70.7069 123.75 70.4636C123.523 70.2203 123.346 69.9315 123.22 69.5973C123.094 69.2631 123.032 68.9078 123.032 68.5303C123.032 68.098 123.112 67.7073 123.273 67.3576C123.434 67.0078 123.655 66.7075 123.933 66.4558C124.212 66.2042 124.54 66.0102 124.918 65.8722C125.295 65.7348 125.704 65.666 126.144 65.666C126.576 65.666 126.982 65.7348 127.364 65.8722C127.745 66.0097 128.075 66.2042 128.354 66.4558C128.633 66.7075 128.853 67.0078 129.014 67.3576C129.175 67.7073 129.256 68.0986 129.256 68.5303C129.256 68.8291 129.228 69.1018 129.173 69.3495C129.118 69.5973 129.045 69.8311 128.955 70.0506C128.865 70.2706 128.759 70.4808 128.637 70.6814C128.515 70.8821 128.388 71.0882 128.254 71.3005L126.427 74.1532H124.27L126.226 71.1714ZM124.799 68.6012C124.799 68.9787 124.923 69.2908 125.17 69.5386C125.418 69.7863 125.742 69.9099 126.143 69.9099C126.544 69.9099 126.868 69.7863 127.116 69.5386C127.364 69.2908 127.487 68.9787 127.487 68.6012C127.487 68.2238 127.364 67.9118 127.116 67.6641C126.868 67.4163 126.544 67.2928 126.143 67.2928C125.742 67.2928 125.418 67.4163 125.17 67.6641C124.923 67.9118 124.799 68.2244 124.799 68.6012Z" fill="#FE9ECC"/>
<path d="M126.231 78.5401H119.253C119.084 78.5401 118.946 78.4027 118.946 78.2331C118.946 78.0635 119.084 77.9259 119.253 77.9259H126.231C126.401 77.9259 126.538 78.0635 126.538 78.2331C126.538 78.4027 126.401 78.5401 126.231 78.5401Z" fill="#FE9ECC"/>
<path d="M40.6218 204.806H14.4287V230.999H40.6218V204.806Z" fill="#D2DCFF"/>
<path d="M14.4287 204.806H0V230.999H14.4287V204.806Z" fill="#AEC3FF"/>
<path d="M14.4287 209.285H0V210.052H14.4287V209.285Z" fill="#86A2E2"/>
<path d="M40.6218 209.285H14.4287V210.052H40.6218V209.285Z" fill="#AEC3FF"/>
<path d="M32.3447 213.802H22.7064C22.5235 213.802 22.3749 213.654 22.3749 213.471V213.451C22.3749 213.269 22.5235 213.12 22.7064 213.12H32.3447C32.5276 213.12 32.6762 213.269 32.6762 213.451V213.471C32.6762 213.654 32.5276 213.802 32.3447 213.802Z" fill="#86A2E2"/>
<path d="M59.761 203.993L46.3776 197.5L40.7508 209.098L54.1342 215.591L59.761 203.993Z" fill="#4A5EA3"/>
<path d="M45.7307 199.128L30.9728 200.989L32.5855 213.778L47.3434 211.917L45.7307 199.128Z" fill="#4A5EA3"/>
<path d="M64.5353 204.806H38.3422V230.999H64.5353V204.806Z" fill="#D2DCFF"/>
<path d="M38.3422 204.806H23.9135V230.999H38.3422V204.806Z" fill="#AEC3FF"/>
<path d="M23.9135 204.806L16.4184 212.835H32.6977L38.3422 204.806H23.9135Z" fill="#86A2E2"/>
<path d="M64.5353 204.806L69.8849 212.939H43.7301L38.3422 204.768L64.5353 204.806Z" fill="#AEC3FF"/>
<path d="M43.8991 199.472L42.8455 204.776L45.6921 199.246L43.8991 199.472Z" fill="#2F3D6C"/>
<path d="M175.873 33.0885H61.3296C59.776 33.0885 58.5168 31.8293 58.5168 30.2757V2.81277C58.5168 1.25922 59.776 0 61.3296 0H175.873C177.427 0 178.686 1.25922 178.686 2.81277V30.2757C178.686 31.8293 177.426 33.0885 175.873 33.0885Z" fill="#6277D7"/>
<path d="M139.007 18.5683H71.6907C70.8926 18.5683 70.2452 17.9216 70.2452 17.1229V15.9663C70.2452 15.1681 70.8926 14.5207 71.6907 14.5207H139.007C139.805 14.5207 140.453 15.1676 140.453 15.9663V17.1229C140.453 17.921 139.806 18.5683 139.007 18.5683Z" fill="#D2DCFF"/>
<path d="M219.315 33.0885H191.852C190.299 33.0885 189.04 31.8293 189.04 30.2757V2.81277C189.04 1.25922 190.299 0 191.852 0H219.315C220.869 0 222.128 1.25922 222.128 2.81277V30.2757C222.128 31.8293 220.868 33.0885 219.315 33.0885Z" fill="#6277D7"/>
<path d="M213.961 25.6716C213.693 25.6716 213.425 25.5689 213.221 25.3644L209.737 21.8805C206.509 24.6534 201.622 24.5142 198.564 21.4548C195.358 18.249 195.358 13.0314 198.564 9.82346C201.771 6.61549 206.988 6.61549 210.195 9.82346C213.047 12.6762 213.362 17.1189 211.142 20.3225L214.702 23.8835C215.111 24.2926 215.111 24.9554 214.702 25.3644C214.497 25.5689 214.229 25.6716 213.961 25.6716ZM204.379 10.8283C203.146 10.8283 201.914 11.2971 200.975 12.2354C199.098 14.1127 199.098 17.1672 200.975 19.0434C201.884 19.9529 203.093 20.4533 204.379 20.4533C205.665 20.4533 206.874 19.9529 207.783 19.0434C207.818 19.009 207.851 18.9741 207.884 18.9397C207.917 18.8865 207.956 18.8377 208.002 18.7917C208.024 18.7701 208.046 18.7489 208.07 18.7306C209.654 16.8412 209.559 14.0113 207.784 12.2349C206.844 11.2971 205.612 10.8283 204.379 10.8283Z" fill="#D2DCFF"/>
</svg>
