<svg width="257" height="219" viewBox="0 0 257 219" fill="none" xmlns="http://www.w3.org/2000/svg">
<path d="M186.862 154.637V154.047C186.862 153.865 186.714 153.717 186.532 153.717H172.84C172.149 153.717 171.589 154.277 171.589 154.967V155.973C171.589 156.664 172.149 157.224 172.84 157.224H186.532C186.714 157.224 186.862 157.076 186.862 156.894V156.304C186.862 156.121 186.714 155.973 186.532 155.973H173.342C173.065 155.973 172.839 155.748 172.839 155.47C172.839 155.192 173.065 154.967 173.342 154.967H186.532C186.714 154.967 186.862 154.82 186.862 154.637Z" fill="#6277D7"/>
<path d="M186.27 154.967V155.973H173.342C173.065 155.973 172.839 155.748 172.839 155.47C172.839 155.192 173.065 154.967 173.342 154.967H186.27V154.967Z" fill="#D2DCFF"/>
<path d="M185.884 151.129V150.539C185.884 150.357 185.736 150.209 185.553 150.209H173.818C173.126 150.209 172.566 150.769 172.566 151.459V152.466C172.566 153.156 173.126 153.716 173.818 153.716H185.553C185.736 153.716 185.884 153.568 185.884 153.386V152.795C185.884 152.613 185.736 152.465 185.553 152.465H174.321C174.043 152.465 173.818 152.24 173.818 151.962C173.818 151.684 174.043 151.459 174.321 151.459H185.553C185.736 151.459 185.884 151.311 185.884 151.129Z" fill="#FE9ECC"/>
<path d="M185.448 151.459V152.466H174.32C174.043 152.466 173.818 152.24 173.818 151.962C173.818 151.684 174.043 151.459 174.32 151.459H185.448V151.459Z" fill="#FFD9E8"/>
<path d="M175.936 159.539L168.681 218.198H167.24L174.496 159.539H175.936Z" fill="#D2DCFF"/>
<path d="M195 218.198H193.559L187.353 168.015L186.304 159.539H187.745L188.778 167.894L195 218.198Z" fill="#D2DCFF"/>
<path d="M103.696 159.539L101.755 175.233L96.4406 218.198H95L100.299 175.356L102.255 159.539H103.696Z" fill="#D2DCFF"/>
<path d="M122.759 218.198H121.319L115.858 174.044L114.063 159.539H115.504L117.283 173.924L122.759 218.198Z" fill="#D2DCFF"/>
<path d="M102.255 159.539H103.696L101.755 175.233L100.299 175.356L102.255 159.539Z" fill="#AEC3FF"/>
<path d="M115.504 159.539L117.283 173.924L115.858 174.044L114.063 159.539H115.504Z" fill="#AEC3FF"/>
<path d="M188.778 167.894L187.353 168.015L186.304 159.539H187.745L188.778 167.894Z" fill="#AEC3FF"/>
<path d="M191.756 159.539H118.097V157.224H191.756C192.288 157.224 192.719 157.655 192.719 158.187V158.576C192.72 159.108 192.288 159.539 191.756 159.539Z" fill="#D2DCFF"/>
<path d="M118.097 159.539H98.6073C98.0754 159.539 97.6443 159.108 97.6443 158.576V158.187C97.6443 157.655 98.0754 157.224 98.6073 157.224H118.097V159.539Z" fill="#86A2E2"/>
<path d="M118.081 151.596H124.542C124.861 151.596 125.107 151.874 125.07 152.19L124.523 156.756C124.491 157.023 124.265 157.224 123.995 157.224H118.627C118.358 157.224 118.131 157.023 118.099 156.756L117.553 152.19C117.515 151.874 117.762 151.596 118.081 151.596Z" fill="#D2DCFF"/>
<path d="M123.529 149.732V147.656L122.287 150.016V146.183L121.311 148.597L120.335 146.183V150.016L119.093 147.656V149.732L117.283 146.822L118.081 151.596H121.311H124.542L125.339 146.822L123.529 149.732Z" fill="#6277D7"/>
<path d="M170.124 151.294H129.702L134.208 127H174.631L170.124 151.294Z" fill="#D2DCFF"/>
<path d="M149.715 140.564H154.255L160.232 157.224H152.301L149.715 140.564Z" fill="#86A2E2"/>
<path d="M149.551 156.155H136.058C135.812 156.155 135.613 156.354 135.613 156.6V156.779C135.613 157.025 135.812 157.224 136.058 157.224H149.551C149.797 157.224 149.996 157.025 149.996 156.779V156.6C149.996 156.354 149.797 156.155 149.551 156.155Z" fill="#86A2E2"/>
<path d="M149.715 140.564V151.294H151.381L149.715 140.564Z" fill="#AEC3FF"/>
<path d="M172.798 12.93V54.133C172.798 55.587 171.619 56.766 170.165 56.766H120.633C119.178 56.766 118 55.587 118 54.133V12.93C118 11.476 119.179 10.297 120.633 10.297H170.165C171.619 10.297 172.798 11.476 172.798 12.93Z" fill="#D2DCFF"/>
<path d="M172.798 12.93V20.697H118V12.93C118 11.476 119.179 10.297 120.633 10.297H170.165C171.619 10.297 172.798 11.476 172.798 12.93Z" fill="#6277D7"/>
<path d="M132.851 13.595C132.1 13.595 131.492 12.986 131.492 12.236V8.35895C131.492 7.60795 132.101 7 132.851 7C133.602 7 134.21 7.60895 134.21 8.35895V12.236C134.21 12.986 133.601 13.595 132.851 13.595Z" fill="#6277D7"/>
<path d="M157.947 13.595C157.196 13.595 156.588 12.986 156.588 12.236V8.35895C156.588 7.60795 157.197 7 157.947 7C158.698 7 159.306 7.60895 159.306 8.35895V12.236C159.306 12.986 158.698 13.595 157.947 13.595Z" fill="#6277D7"/>
<path d="M133.648 39.887L139.497 34.634C139.795 34.365 140.092 34.06 140.39 33.72C140.688 33.38 140.837 32.983 140.837 32.529C140.837 32.019 140.653 31.618 140.284 31.327C139.915 31.037 139.483 30.891 138.987 30.891C138.391 30.891 137.927 31.075 137.594 31.444C137.261 31.813 137.073 32.267 137.03 32.805L133.84 32.571C133.883 31.791 134.045 31.114 134.329 30.54C134.612 29.966 134.988 29.4869 135.456 29.1039C135.924 28.7209 136.473 28.434 137.104 28.243C137.735 28.052 138.419 27.956 139.156 27.956C139.837 27.956 140.475 28.052 141.07 28.243C141.666 28.434 142.183 28.718 142.623 29.094C143.062 29.47 143.406 29.941 143.655 30.508C143.903 31.075 144.027 31.735 144.027 32.486C144.027 32.968 143.977 33.4039 143.878 33.7939C143.779 34.1839 143.64 34.538 143.463 34.857C143.286 35.176 143.077 35.471 142.836 35.74C142.595 36.01 142.333 36.272 142.049 36.527L137.476 40.462H144.154V43.269H133.647V39.887H133.648Z" fill="#6277D7"/>
<path d="M151.684 37.888C151.514 37.931 151.344 37.966 151.174 37.994C151.004 38.023 150.826 38.037 150.642 38.037C149.933 38.037 149.288 37.909 148.707 37.654C148.125 37.399 147.629 37.052 147.218 36.612C146.807 36.173 146.488 35.652 146.261 35.049C146.034 34.446 145.921 33.805 145.921 33.124C145.921 32.344 146.066 31.639 146.357 31.008C146.647 30.377 147.045 29.835 147.548 29.381C148.051 28.927 148.643 28.5759 149.324 28.3279C150.005 28.0799 150.742 27.956 151.536 27.956C152.316 27.956 153.049 28.0799 153.737 28.3279C154.425 28.5759 155.02 28.927 155.524 29.381C156.027 29.835 156.424 30.377 156.715 31.008C157.005 31.639 157.151 32.345 157.151 33.124C157.151 33.663 157.101 34.156 157.002 34.602C156.903 35.049 156.771 35.471 156.609 35.868C156.446 36.265 156.254 36.644 156.035 37.006C155.815 37.368 155.585 37.74 155.344 38.123L152.047 43.27H148.155L151.684 37.888ZM149.11 33.251C149.11 33.932 149.333 34.495 149.78 34.942C150.227 35.389 150.812 35.612 151.535 35.612C152.258 35.612 152.843 35.389 153.29 34.942C153.737 34.495 153.96 33.932 153.96 33.251C153.96 32.57 153.737 32.007 153.29 31.56C152.843 31.113 152.258 30.89 151.535 30.89C150.812 30.89 150.227 31.113 149.78 31.56C149.333 32.007 149.11 32.571 149.11 33.251Z" fill="#6277D7"/>
<path d="M151.694 51.183H139.104C138.798 51.183 138.55 50.935 138.55 50.629C138.55 50.323 138.798 50.075 139.104 50.075H151.694C152 50.075 152.248 50.323 152.248 50.629C152.248 50.935 152 51.183 151.694 51.183Z" fill="#AEC3FF"/>
<path d="M140.202 207.582C142.557 203.27 135.123 201.243 133.331 202.953C131.539 204.663 137.48 212.565 140.202 207.582Z" fill="#FE9ECC"/>
<path d="M143.328 206.266C147.949 206.266 145.857 198 143.882 198C141.404 198 137.988 206.266 143.328 206.266Z" fill="#FE9ECC"/>
<path d="M146.889 209.264C150.699 212.366 154.048 205.426 152.693 203.352C151.339 201.278 142.486 205.679 146.889 209.264Z" fill="#FE9ECC"/>
<path d="M142.031 211.316C141.388 209.828 140.447 208.442 139.233 207.196C137.169 205.076 134.998 204.082 134.977 204.072C134.912 204.043 134.836 204.072 134.807 204.136C134.778 204.201 134.806 204.277 134.871 204.306C134.892 204.316 137.025 205.294 139.056 207.382C140.245 208.605 141.168 209.965 141.797 211.423C141.869 211.589 141.935 211.756 141.999 211.924H142.273C142.198 211.72 142.118 211.517 142.031 211.316Z" fill="#FF78BA"/>
<path d="M143.767 199.695C143.775 199.625 143.725 199.561 143.654 199.552C143.584 199.544 143.52 199.594 143.512 199.664C143.503 199.735 142.855 205.274 142.888 211.924H143.145C143.112 205.291 143.758 199.765 143.767 199.695Z" fill="#FF78BA"/>
<path d="M151.41 204.281C151.37 204.222 151.291 204.206 151.232 204.245C151.213 204.257 149.36 205.504 147.453 207.555C146.414 208.672 145.233 210.169 144.368 211.924H144.656C145.501 210.247 146.636 208.811 147.637 207.734C149.524 205.704 151.356 204.471 151.375 204.459C151.433 204.419 151.449 204.339 151.41 204.281Z" fill="#FF78BA"/>
<path d="M143.145 211.924H142.889H142.274H141.999H138.414C138.277 211.924 138.179 212.059 138.222 212.19L138.448 212.884L138.562 213.236L140.2 218.262C140.245 218.398 140.372 218.49 140.515 218.49H146.42C146.564 218.49 146.691 218.398 146.735 218.262L148.373 213.236L148.488 212.884L148.714 212.19C148.757 212.059 148.659 211.924 148.521 211.924H144.655H144.368H143.145Z" fill="#D2DCFF"/>
<path d="M148.488 212.884L148.374 213.235H138.562L138.448 212.884H148.488Z" fill="#AEC3FF"/>
<path d="M253.973 210.8V209.001C253.973 208.445 253.522 207.994 252.965 207.994H211.218C209.112 207.994 207.405 209.701 207.405 211.807V214.875C207.405 216.981 209.112 218.689 211.218 218.689H252.965C253.522 218.689 253.973 218.238 253.973 217.681V215.882C253.973 215.325 253.522 214.874 252.965 214.874H212.752C211.905 214.874 211.218 214.188 211.218 213.34C211.218 212.493 211.905 211.806 212.752 211.806H252.965C253.522 211.808 253.973 211.357 253.973 210.8Z" fill="#86A2E2"/>
<path d="M253.568 178.714V176.915C253.568 176.359 253.117 175.908 252.561 175.908H210.814C208.708 175.908 207 177.615 207 179.721V182.789C207 184.895 208.708 186.603 210.814 186.603H252.561C253.117 186.603 253.568 186.152 253.568 185.595V183.796C253.568 183.24 253.117 182.789 252.561 182.789H212.348C211.5 182.789 210.814 182.102 210.814 181.255C210.814 180.408 211.5 179.721 212.348 179.721H252.561C253.117 179.722 253.568 179.271 253.568 178.714Z" fill="#D2DCFF"/>
<path d="M250.99 200.105V198.306C250.99 197.749 250.539 197.299 249.983 197.299H214.202C212.095 197.299 210.388 199.006 210.388 201.113V204.18C210.388 206.286 212.095 207.994 214.202 207.994H249.983C250.54 207.994 250.99 207.543 250.99 206.987V205.188C250.99 204.631 250.539 204.18 249.983 204.18H215.736C214.888 204.18 214.202 203.494 214.202 202.646C214.202 201.799 214.888 201.112 215.736 201.112H249.983C250.539 201.113 250.99 200.662 250.99 200.105Z" fill="#AEC3FF"/>
<path d="M257 168.31V166.511C257 165.954 256.549 165.503 255.992 165.503H220.211C218.105 165.503 216.397 167.211 216.397 169.317V172.385C216.397 174.491 218.105 176.198 220.211 176.198H255.992C256.549 176.198 257 175.747 257 175.191V173.392C257 172.835 256.549 172.384 255.992 172.384H221.745C220.898 172.384 220.211 171.698 220.211 170.85C220.211 170.003 220.898 169.316 221.745 169.316H255.992C256.549 169.317 257 168.866 257 168.31Z" fill="#AEC3FF"/>
<path d="M249.664 201.113V204.18H215.735C214.888 204.18 214.201 203.494 214.201 202.646C214.201 201.799 214.888 201.112 215.735 201.112H249.664V201.113Z" fill="#EFF1FA"/>
<path d="M246.667 211.808V214.875H212.739C211.891 214.875 211.205 214.189 211.205 213.341C211.205 212.494 211.891 211.807 212.739 211.807H246.667V211.808Z" fill="#EFF1FA"/>
<path d="M246.262 179.722V182.789H212.334C211.486 182.789 210.8 182.103 210.8 181.255C210.8 180.408 211.486 179.721 212.334 179.721H246.262V179.722Z" fill="#EFF1FA"/>
<path d="M255.674 169.317V172.385H221.746C220.898 172.385 220.212 171.698 220.212 170.851C220.212 170.003 220.898 169.317 221.746 169.317H255.674V169.317Z" fill="#EFF1FA"/>
<path d="M257 189.41V187.611C257 187.054 256.549 186.604 255.992 186.604H220.211C218.105 186.604 216.397 188.311 216.397 190.418V193.485C216.397 195.591 218.105 197.299 220.211 197.299H255.992C256.549 197.299 257 196.848 257 196.291V194.492C257 193.936 256.549 193.485 255.992 193.485H221.745C220.898 193.485 220.211 192.798 220.211 191.951C220.211 191.103 220.898 190.417 221.745 190.417H255.992C256.549 190.417 257 189.966 257 189.41Z" fill="#86A2E2"/>
<path d="M255.674 190.417V193.485H221.746C220.898 193.485 220.212 192.798 220.212 191.951C220.212 191.103 220.898 190.417 221.746 190.417H255.674V190.417Z" fill="#EFF1FA"/>
<path d="M237.918 160.149H244.065C244.368 160.149 244.603 160.413 244.567 160.715L244.047 165.058C244.017 165.313 243.801 165.504 243.545 165.504H238.438C238.182 165.504 237.966 165.313 237.936 165.058L237.416 160.715C237.38 160.413 237.615 160.149 237.918 160.149Z" fill="#D2DCFF"/>
<path d="M243.102 158.376V156.401L241.92 158.646V155L240.992 157.296L240.063 155V158.646L238.881 156.401V158.376L237.16 155.608L237.918 160.149H240.992H244.065L244.824 155.608L243.102 158.376Z" fill="#6277D7"/>
<path d="M53.2349 13.1677C53.2349 5.89353 46.8194 0 37.1991 0C29.2038 0 26.4561 4.41203 26.4561 4.41203C26.4561 4.41203 18.8989 6.0452 18.8989 15.436C18.8989 24.1652 18.8989 39.1841 18.8989 39.1841H31.3164H31.9494H41.1202H51.0892V19.6266C51.8767 18.659 53.2349 16.5078 53.2349 13.1677ZM38.3021 34.4349C37.6297 34.4349 36.8957 34.311 36.1299 34.095V39.1834H25.1425V26.0923C25.0673 25.8824 24.9936 25.6576 24.9218 25.4213C20.0507 24.9561 20.2524 16.906 23.147 16.906C23.1863 16.906 23.2249 16.9094 23.2628 16.9148V16.9141C35.4304 20.8041 43.6133 14.4305 46.2906 10.0022C46.2906 13.0925 49.7106 16.1056 50.9274 16.3805C50.7466 27.4241 42.8461 34.4349 38.3021 34.4349Z" fill="#311643"/>
<path d="M36.1299 35.2914V34.0943C36.8957 34.3103 37.6297 34.4342 38.3021 34.4342C42.8468 34.4342 50.7473 27.4235 50.9267 16.3792C49.71 16.1043 46.2899 13.0912 46.2899 10.0009C43.6126 14.4298 35.4298 20.8027 23.2622 16.9127V16.9134C23.2243 16.908 23.1863 16.9046 23.1464 16.9046C20.2518 16.9046 20.05 24.9547 24.9211 25.4199C24.9928 25.6562 25.0667 25.881 25.1418 26.0909V34.8974L16.5365 38.9539V49.575H45.1327V37.9965L36.1299 35.2914Z" fill="#FCBEB7"/>
<path d="M45.1328 49.5764V37.9979L36.1293 35.2921V34.095C33.5834 33.3766 30.6895 31.6365 28.5647 30.0128L45.1328 49.5764Z" fill="#F9AFAB"/>
<path d="M30.2615 25.7043C31.917 25.7043 33.259 24.3623 33.259 22.7068C33.259 21.0513 31.917 19.7092 30.2615 19.7092C28.606 19.7092 27.2639 21.0513 27.2639 22.7068C27.2639 24.3623 28.606 25.7043 30.2615 25.7043Z" fill="#F49795"/>
<path d="M50.5408 20.2184C50.1609 22.2314 49.5238 24.0671 48.7194 25.7003C47.1343 25.6217 45.8735 24.3115 45.8735 22.7068C45.8735 21.0513 47.2155 19.7099 48.8703 19.7099C49.4885 19.7092 50.0634 19.8968 50.5408 20.2184Z" fill="#F49795"/>
<path d="M45.4714 13.5909C43.283 13.5909 41.4757 15.2545 41.2482 17.384C40.0585 16.8241 39.0084 17.1274 38.4538 17.382C38.225 15.2539 36.4191 13.5909 34.2313 13.5909C31.8892 13.5909 29.9839 15.4963 29.9839 17.8384C29.9839 20.1805 31.8892 22.0858 34.2313 22.0858C36.5213 22.0858 38.3929 20.2644 38.4748 17.9941C38.8276 17.791 39.9481 17.2737 41.2279 17.9988C41.3125 20.2665 43.1834 22.0858 45.4714 22.0858C47.8135 22.0858 49.7188 20.1805 49.7188 17.8384C49.7188 15.4963 47.8135 13.5909 45.4714 13.5909ZM34.2313 21.5299C32.196 21.5299 30.5391 19.8737 30.5391 17.8384C30.5391 15.8023 32.1953 14.1461 34.2313 14.1461C36.2674 14.1461 37.9236 15.8023 37.9236 17.8384C37.9229 19.8737 36.2667 21.5299 34.2313 21.5299ZM45.4714 21.5299C43.436 21.5299 41.7791 19.8737 41.7791 17.8384C41.7791 15.8023 43.4353 14.1461 45.4714 14.1461C47.5074 14.1461 49.1636 15.8023 49.1636 17.8384C49.1629 19.8737 47.5067 21.5299 45.4714 21.5299Z" fill="white"/>
<path d="M45.474 19.0105C45.1395 19.0105 44.868 18.7389 44.868 18.4045V17.2723C44.868 16.9378 45.1395 16.6663 45.474 16.6663C45.8085 16.6663 46.08 16.9378 46.08 17.2723V18.4045C46.08 18.7389 45.8085 19.0105 45.474 19.0105Z" fill="#311643"/>
<path d="M34.4155 19.0105C34.0803 19.0105 33.8094 18.7389 33.8094 18.4045V17.2723C33.8094 16.9378 34.081 16.6663 34.4155 16.6663C34.75 16.6663 35.0214 16.9378 35.0214 17.2723V18.4045C35.0214 18.7389 34.75 19.0105 34.4155 19.0105Z" fill="#311643"/>
<path d="M38.7429 27.7539C37.6609 27.7539 36.9241 27.3469 36.4779 26.9766C35.9152 26.5093 35.6817 25.9995 35.6715 25.9778C35.6086 25.8377 35.6708 25.6731 35.811 25.6101C35.9505 25.5472 36.1143 25.6095 36.178 25.7483C36.2098 25.8174 36.9783 27.4282 39.2107 27.1702C39.3637 27.1526 39.5013 27.2616 39.5189 27.414C39.5365 27.5663 39.4274 27.7044 39.2744 27.722C39.0888 27.7444 38.9115 27.7539 38.7429 27.7539Z" fill="#311643"/>
<path d="M56.8629 204.083L57.9997 208.809L70.3983 212.702L68.6154 204.083H56.8629Z" fill="#FCBEB7"/>
<path d="M15.0888 204.083L15.4274 209.92L14.6548 210.205L14.1456 212.704L26.5319 208.809L26.8414 204.083H15.0888Z" fill="#FCBEB7"/>
<path d="M79.961 214.538L69.8816 210.205L70.3983 212.703L57.9998 208.809V212.361C57.9998 213.611 58.6532 214.743 59.6804 215.38L60.7468 218.428C60.8389 218.692 61.0874 218.868 61.367 218.868C61.7299 218.868 62.0238 218.575 62.0238 218.212V216.228L70.4978 218.868H79.07C80.3165 218.868 81.3268 217.858 81.3268 216.612C81.3268 215.709 80.7891 214.894 79.961 214.538Z" fill="#2F3D6C"/>
<path d="M26.5434 212.327L26.5326 208.774L14.1457 212.705L14.6548 210.205L4.58832 214.568C3.76089 214.927 3.22594 215.744 3.22865 216.645C3.23203 217.892 4.24567 218.9 5.49222 218.895L14.0644 218.87L22.8269 216.113L22.8329 218.189C22.8343 218.552 23.1288 218.845 23.4917 218.843C23.7707 218.843 24.0192 218.665 24.1107 218.402L25.2672 215.064C26.0614 214.4 26.5461 213.407 26.5434 212.327Z" fill="#2F3D6C"/>
<path d="M16.9637 85.2381L12.3906 104.603C11.0702 110.196 10.5495 115.948 10.8454 121.686L15.0896 204.082H26.842L31.8601 118.57L56.8629 204.082H68.6154L47.9224 85.2375H16.9637V85.2381Z" fill="#6277D7"/>
<path d="M32.5141 44.3376C34.601 44.3376 36.2701 42.3279 37.3955 40.2925H25.4946C27.3099 42.3225 29.7962 44.3376 32.5141 44.3376Z" fill="white"/>
<path d="M54.7815 44.4933C52.9472 41.638 50.1575 39.5274 46.9108 38.5388L39.0238 36.1371C39.0238 36.4689 38.447 38.3919 37.3961 40.2926C36.2708 42.3279 34.6017 44.3376 32.5149 44.3376C29.7963 44.3376 27.3106 42.3225 25.4953 40.2926C23.6536 38.2328 22.5032 36.1581 22.5032 36.1581L14.3095 39.9547C10.9558 41.5086 8.48637 44.4981 7.59463 48.0854L1.54944 72.3948L12.6655 72.3975L15.3936 62.958L16.9644 85.2382H47.9231L50.7357 61.5239L58.1101 68.1568L64.2278 59.196L54.7815 44.4933Z" fill="#FE9ECC"/>
<path d="M99.4001 35.2914L98.9288 35.2129L98.855 34.9244C98.7162 34.3814 98.2449 33.9887 97.6856 33.9514L91.0764 33.5045L86.4789 31.6351L89.0458 28.4317C89.4711 27.9008 89.4115 27.1309 88.9097 26.6725L83.4949 30.8449C82.9634 31.2538 82.5225 31.7691 82.2002 32.3569L80.712 35.0687L80.7053 35.0599L58.1095 68.1575L61.2141 70.9939C63.781 73.3387 67.8774 72.5769 69.4294 69.4656L84.1091 40.0379L89.4589 40.5471C90.6621 40.6616 91.8761 40.5404 93.0333 40.191L95.8649 39.3351C96.3457 39.1895 96.5969 38.6614 96.4052 38.1969L98.4223 37.8089C98.7995 37.7365 99.0839 37.4263 99.1245 37.0445L99.159 36.7181H99.2823C99.6784 36.7181 100 36.3965 100 36.0004C100 35.6483 99.7468 35.349 99.4001 35.2914Z" fill="#FCBEB7"/>
<path d="M64.2272 59.196L55.6367 65.9325L58.1095 68.1568L64.2272 59.196Z" fill="#FF78BA"/>
<path d="M32.8202 47.2328C31.099 47.2328 29.348 46.7088 27.6147 45.6762C26.2388 44.8562 24.871 43.7153 23.5493 42.2839C21.306 39.8551 19.943 37.3749 19.9302 37.3498L20.3859 37.1386C20.3994 37.1629 21.7245 39.566 23.9278 41.9487C25.2157 43.3422 26.5448 44.4506 27.8781 45.2442C29.5302 46.228 31.1931 46.7264 32.8202 46.7264C34.3579 46.7264 35.7426 46.2124 36.9363 45.1995C37.9019 44.3795 38.7483 43.2325 39.4519 41.7903C40.6585 39.3154 41.0295 36.7729 41.0335 36.7479L41.5231 36.8968C41.5082 37.0018 41.1473 39.4658 39.9062 42.0117C39.1722 43.5176 38.2831 44.7194 37.2641 45.5848C35.9755 46.679 34.4812 47.2328 32.8202 47.2328Z" fill="white"/>
<path d="M51.268 150.992C54.3748 150.992 56.8933 148.473 56.8933 145.366C56.8933 142.26 54.3748 139.741 51.268 139.741C48.1611 139.741 45.6426 142.26 45.6426 145.366C45.6426 148.473 48.1611 150.992 51.268 150.992Z" fill="#4A5EA3"/>
<path d="M21.7956 150.992C24.9024 150.992 27.4209 148.473 27.4209 145.366C27.4209 142.26 24.9024 139.741 21.7956 139.741C18.6887 139.741 16.1702 142.26 16.1702 145.366C16.1702 148.473 18.6887 150.992 21.7956 150.992Z" fill="#4A5EA3"/>
<path d="M54.019 43.4188C53.4523 43.7925 52.7732 44.0099 52.0432 44.0099C50.0593 44.0099 48.4498 42.4011 48.4498 40.4165C48.4498 39.9892 48.5243 39.5796 48.6618 39.1997C50.7581 40.1531 52.5978 41.5987 54.019 43.4188Z" fill="#FF78BA"/>
<path d="M14.3576 42.4552C14.3576 44.4391 12.7495 46.0486 10.7642 46.0486C9.96727 46.0486 9.23123 45.7893 8.63538 45.3498C9.75531 43.2197 11.4887 41.4524 13.6345 40.2932C14.0888 40.8945 14.3576 41.6434 14.3576 42.4552Z" fill="#FF78BA"/>
<path d="M25.6646 91.997L51.4684 91.0226C51.9329 91.005 52.2945 90.6143 52.2776 90.1505L50.8969 53.6004C50.8793 53.1359 50.4887 52.7743 50.0248 52.7912L24.221 53.7656C23.7565 53.7832 23.3949 54.1739 23.4118 54.6377L24.7925 91.1879C24.8101 91.6524 25.2001 92.0146 25.6646 91.997Z" fill="#4A5EA3"/>
<path d="M25.5833 90.0266L51.2564 92.7994C51.7182 92.8495 52.1333 92.515 52.1827 92.0532L56.1105 55.6886C56.1607 55.2268 55.8262 54.8117 55.3644 54.7616L29.6913 51.9889C29.2295 51.9388 28.8144 52.2732 28.7643 52.735L24.8371 89.0997C24.7877 89.5615 25.1215 89.9765 25.5833 90.0266Z" fill="#4A5EA3"/>
<path d="M56.1262 75.4939C56.1059 75.005 55.8885 74.5446 55.5236 74.2183L55.0414 73.7869L55.0191 73.5587C54.9338 72.6975 54.2303 72.0292 53.3663 71.9865L50.2462 71.8335L51.8902 69.295C52.0006 69.1251 52.0344 68.9165 51.9843 68.7201C51.8617 68.2435 51.3106 68.0241 50.8942 68.2868L42.0085 73.8932L12.6654 72.3975L1.54874 72.3948L0.20941 77.1332C-0.836719 80.8336 2.18317 84.4216 6.00746 84.0227L42.0085 80.2729L52.2457 81.8465L52.7014 81.7233C53.4862 81.5114 54.0339 80.8024 54.0414 79.9899L54.0474 79.3575L54.065 79.3494C54.736 79.0494 55.1592 78.3736 55.1369 77.639L55.1254 77.2673L55.5019 76.9409C55.9197 76.578 56.1492 76.0458 56.1262 75.4939Z" fill="#FCBEB7"/>
<path d="M6.91894 80.8769C6.91894 82.2156 6.21271 83.389 5.15237 84.0458C2.35863 83.9063 0.17024 81.6434 0.00976562 78.9465C0.662496 77.8712 1.84471 77.1535 3.19486 77.1535C5.25191 77.1528 6.91894 78.8199 6.91894 80.8769Z" fill="#F9AFAB"/>
<path d="M68.7225 70.5355C66.9255 72.6433 63.6889 73.0157 61.451 71.1963C61.6522 69.3295 63.2331 67.8758 65.1527 67.8758C66.8401 67.8758 68.2655 68.9978 68.7225 70.5355Z" fill="#F9AFAB"/>
<path d="M26.991 91.947C26.991 91.947 49.9137 96.6766 49.9097 96.6535C49.9056 96.6305 49.2001 92.5774 49.2001 92.5774L39.1234 91.4893L26.991 91.947Z" fill="#4A5EA3"/>
<path d="M26.4886 53.6803L26.5652 73.1058L28.6716 53.5977L26.4886 53.6803Z" fill="#2F3D6C"/>
</svg>
