<svg width="19" height="16" viewBox="0 0 19 16" fill="none" xmlns="http://www.w3.org/2000/svg">
<path d="M5.00764 0.907491C8.1044 0.635003 11.2187 0.635003 14.3154 0.907491L15.8074 1.03877C16.8006 1.12617 17.6513 1.72584 18.0921 2.58361C18.1484 2.69335 18.1062 2.82621 18.0023 2.89132L11.812 6.77025C10.4844 7.60216 8.81038 7.61962 7.4661 6.81556L1.2345 3.0882C1.13383 3.02799 1.08761 2.90402 1.13299 2.79492C1.53621 1.82536 2.44275 1.13318 3.51566 1.03877L5.00764 0.907491Z" fill="#767676"/>
<path d="M1.12791 4.76676C0.973836 4.6746 0.777237 4.77377 0.759277 4.95402C0.508608 7.46965 0.569277 10.0091 0.941284 12.5132C1.1374 13.8333 2.20179 14.8454 3.51566 14.961L5.00764 15.0923C8.1044 15.3647 11.2187 15.3647 14.3154 15.0923L15.8074 14.961C17.1213 14.8454 18.1857 13.8333 18.3818 12.5132C18.7646 9.93613 18.8177 7.32162 18.5411 4.73415C18.5217 4.55264 18.3218 4.45529 18.1684 4.55139L12.592 8.04564C10.7958 9.17118 8.53096 9.19479 6.71223 8.10695L1.12791 4.76676Z" fill="#767676"/>
</svg>
