<svg width="15" height="20" viewBox="0 0 15 20" fill="none" xmlns="http://www.w3.org/2000/svg">
<path fill-rule="evenodd" clip-rule="evenodd" d="M3.02438 5.75828L3.3633 8.84584L2.67746 8.90126C1.72106 8.97855 0.940116 9.70628 0.78508 10.6647C0.42776 12.8736 0.42776 15.1266 0.78508 17.3355C0.940116 18.2939 1.72106 19.0217 2.67746 19.0989L4.15551 19.2184C6.48911 19.407 8.83385 19.407 11.1674 19.2184L12.6455 19.0989C13.6019 19.0217 14.3828 18.2939 14.5379 17.3355C14.8952 15.1266 14.8952 12.8736 14.5379 10.6647C14.3828 9.70628 13.6019 8.97855 12.6455 8.90126L11.9596 8.84583L12.2985 5.75828C12.3384 5.3943 12.3384 5.02696 12.2985 4.66298L12.276 4.45809C12.0374 2.2847 10.3495 0.565038 8.20391 0.309534C7.8435 0.266614 7.47935 0.266614 7.11894 0.309534C4.9734 0.565038 3.28544 2.2847 3.04687 4.45809L3.02438 4.66298C2.98443 5.02696 2.98443 5.3943 3.02438 5.75828ZM8.03077 1.79926C7.78539 1.77004 7.53746 1.77004 7.29208 1.79926C5.83132 1.97322 4.68211 3.14402 4.51968 4.62373L4.49719 4.82863C4.46932 5.08252 4.46932 5.33875 4.49719 5.59263L4.84177 8.73182C6.71961 8.60992 8.60324 8.60991 10.4811 8.73182L10.8257 5.59263C10.8535 5.33874 10.8535 5.08252 10.8257 4.82863L10.8032 4.62373C10.6407 3.14402 9.49153 1.97322 8.03077 1.79926ZM7.66145 12.5001C6.84303 12.5001 6.17957 13.1717 6.17957 14.0001C6.17957 14.8285 6.84303 15.5001 7.66145 15.5001C8.47986 15.5001 9.14332 14.8285 9.14332 14.0001C9.14332 13.1717 8.47986 12.5001 7.66145 12.5001Z" fill="#767676"/>
</svg>
